<?xml version="1.0" encoding="UTF-8"?>
<svg width="24px" height="24px" viewBox="0 0 24 24" version="1.1" xmlns="http://www.w3.org/2000/svg" xmlns:xlink="http://www.w3.org/1999/xlink">
    <!-- Generator: Sketch 61.2 (89653) - https://sketch.com -->
    <title>Group</title>
    <desc>Created with Sketch.</desc>
    <g id="Page-1" stroke="none" stroke-width="1" fill="none" fill-rule="evenodd">
        <g id="Group">
            <circle id="Oval" fill="#1AB17C" fill-rule="nonzero" cx="12" cy="12" r="12"></circle>
            <path d="M10.9394,13.7195 L8.6042,11.6401 C8.037,11.1351 7.1679,11.1855 6.6629,11.7526 C6.1579,12.3198 6.20827,13.1889 6.77541,13.6939 L10.2598,16.7966 C10.8725,17.3421 11.8236,17.2332 12.2971,16.5633 L17.5369,9.1494 C17.9752,8.52921 17.8278,7.67118 17.2076,7.23289 C16.5875,6.7946 15.7295,6.94202 15.2912,7.56217 L10.9394,13.7195 Z" id="Path" fill="#FFFFFF"></path>
            <path d="M10.9394,13.7195 L10.6069,14.0929 L11.0248,14.465 L11.3478,14.0081 L10.9394,13.7195 Z M8.6042,11.6401 L8.2717,12.0135 L8.6042,11.6401 Z M6.77541,13.6939 L6.44291,14.0673 L6.77541,13.6939 Z M10.2598,16.7966 L9.9273,17.17 L10.2598,16.7966 Z M12.2971,16.5633 L11.8888,16.2747 L12.2971,16.5633 Z M17.5369,9.1494 L17.9452,9.4379 L17.5369,9.1494 Z M15.2912,7.56217 L14.8829,7.27359 L14.8829,7.27359 L15.2912,7.56217 Z M11.2719,13.3461 L8.9367,11.2667 L8.2717,12.0135 L10.6069,14.0929 L11.2719,13.3461 Z M8.9367,11.2667 C8.1633,10.5781 6.97813,10.6467 6.28949,11.4201 L7.0363,12.0851 C7.3577,11.7242 7.9108,11.6922 8.2717,12.0135 L8.9367,11.2667 Z M6.28949,11.4201 C5.60085,12.1935 5.66953,13.3787 6.44291,14.0673 L7.1079,13.3205 C6.74701,12.9991 6.71495,12.446 7.0363,12.0851 L6.28949,11.4201 Z M6.44291,14.0673 L9.9273,17.17 L10.5923,16.4232 L7.1079,13.3205 L6.44291,14.0673 Z M9.9273,17.17 C10.7628,17.914 12.0597,17.7654 12.7054,16.8518 L11.8888,16.2747 C11.5875,16.701 10.9822,16.7703 10.5923,16.4232 L9.9273,17.17 Z M12.7054,16.8518 L17.9452,9.4379 L17.1286,8.86077 L11.8888,16.2747 L12.7054,16.8518 Z M17.9452,9.4379 C18.5429,8.59228 18.3419,7.42224 17.4962,6.82457 L16.9191,7.64121 C17.3137,7.92012 17.4075,8.46614 17.1286,8.86077 L17.9452,9.4379 Z M17.4962,6.82457 C16.6506,6.22691 15.4805,6.42794 14.8829,7.27359 L15.6995,7.85075 C15.9784,7.45611 16.5244,7.3623 16.9191,7.64121 L17.4962,6.82457 Z M14.8829,7.27359 L10.5311,13.4309 L11.3478,14.0081 L15.6995,7.85075 L14.8829,7.27359 Z" id="Shape" fill="#FFFFFF" fill-rule="nonzero"></path>
        </g>
    </g>
</svg>