<?xml version="1.0" encoding="UTF-8"?>
<svg width="54px" height="45px" viewBox="0 0 54 45" version="1.1" xmlns="http://www.w3.org/2000/svg" xmlns:xlink="http://www.w3.org/1999/xlink">
    <!-- Generator: Sketch 54.1 (76490) - https://sketchapp.com -->
    <title>Group 6</title>
    <desc>Created with Sketch.</desc>
    <defs>
        <path d="M48.472875,10.9890984 C49.1715,26.656623 37.5525,44.1249344 16.981875,44.1249344 C10.72575,44.1249344 4.90275,42.2800328 0,39.1196066 C5.877,39.8163934 11.743875,38.1773607 16.401375,34.5067869 C11.55375,34.4174262 7.462125,31.1970492 6.053625,26.7708689 C7.788375,27.1045574 9.496125,27.0072787 11.055375,26.5819672 C5.72625,25.5039836 2.04975,20.6785082 2.169,15.5182131 C3.663,16.3518689 5.371875,16.8540984 7.18875,16.9095246 C2.2545,13.5952623 0.85725,7.04591803 3.75975,2.03832787 C9.22275,8.77883607 17.38575,13.2129344 26.593875,13.6789672 C24.9795,6.70883607 30.236625,0 37.386,0 C40.573125,0 43.453125,1.35172131 45.4725,3.5167377 C47.995875,3.01790164 50.367375,2.09036066 52.507125,0.813295082 C51.68025,3.41493443 49.924125,5.59918033 47.637,6.97578689 C49.878,6.70770492 52.012125,6.10932787 54,5.2225082 C52.515,7.45765574 50.63625,9.41906557 48.472875,10.9890984 Z" id="path-1"></path>
    </defs>
    <g id="Website" stroke="none" stroke-width="1" fill="none" fill-rule="evenodd">
        <g id="MainSite" transform="translate(-286.000000, -5620.000000)">
            <g id="Group-24" transform="translate(-66.000000, 4379.000000)">
                <g id="Twitter" transform="translate(334.000000, 1218.000000)">
                    <g transform="translate(4.500000, 5.090164)" id="Group-6">
                        <g transform="translate(13.500000, 18.098361)">
                            <mask id="mask-2" fill="white">
                                <use xlink:href="#path-1"></use>
                            </mask>
                            <g id="Clip-5"></g>
                            <polygon id="Fill-4" fill="#FFFFFF" mask="url(#mask-2)" points="0 44.137377 54 44.137377 54 -0.113114754 0 -0.113114754"></polygon>
                        </g>
                    </g>
                </g>
            </g>
        </g>
    </g>
</svg>