<?xml version="1.0" encoding="UTF-8"?>
<svg width="333px" height="187px" viewBox="0 0 333 187" version="1.1" xmlns="http://www.w3.org/2000/svg" xmlns:xlink="http://www.w3.org/1999/xlink">
    <!-- Generator: Sketch 58 (84663) - https://sketch.com -->
    <title>true-logo-vector bigger</title>
    <desc>Created with Sketch.</desc>
    <g id="Confirmation-screen" stroke="none" stroke-width="1" fill="none" fill-rule="evenodd">
        <g id="Desktop-HD" transform="translate(-553.000000, -148.000000)" fill-rule="nonzero">
            <g id="true-logo-vector-bigger" transform="translate(553.000000, 148.000000)">
                <path d="M183.951594,80.9029655 C186.125323,77.2746552 188.364002,73.4946575 190.667561,69.5630658 C189.988907,68.384493 189.547878,67.098055 189.348235,65.7742302 C189.121199,64.2687789 189.215885,62.8692427 189.52043,61.5446183 C190.076355,59.1266082 191.102557,57.4066786 192.766172,55.2266839 C192.3011,55.8361128 194.800278,52.1252035 196.269088,50.3711559 C198.113726,48.1682954 200.154714,46.2997602 202.561552,44.8218512 C205.734467,42.8735348 209.301854,41.781753 213.152653,41.781753 C218.773006,41.781753 224.334396,43.3220153 228.759552,46.3761423 C233.37289,49.5601474 236.483806,54.2057082 237.429067,59.7220966 C240.45765,55.8893185 243.691779,52.658062 247.224114,49.9891291 C258.060889,41.8011644 271.019757,39.6575995 285.71252,43.9738371 C287.177513,44.4042064 288.56832,44.92717 289.882049,45.5369817 C291.504527,43.7361287 293.836018,42.4954331 296.787936,42.3339989 C307.29431,41.7594272 316.861187,44.6578959 324.290383,52.1999163 C329.472373,57.4608966 332.307328,64.4773944 332.912612,72.4581016 C333.436979,79.3719124 332.281938,86.9344073 329.673752,94.618876 C324.570766,109.653739 314.207537,124.343597 301.274558,134.348988 C283.538697,148.069774 255.59466,147.747192 237.203888,134.720482 C234.321266,132.678574 231.860549,130.326117 229.807855,127.710155 C229.067124,128.669142 228.305758,129.580377 227.52319,130.443862 C221.003389,137.637811 212.979006,141.493167 203.970107,141.493167 C194.359373,141.493167 187.012221,137.254688 182.524819,130.415808 C180.094326,132.7702 177.571329,134.845869 174.937132,136.601458 C169.1809,140.437761 163.079935,142.612636 156.675593,142.612636 C145.120155,142.612636 136.606612,137.216873 131.903357,128.354153 C130.228023,125.197189 129.138687,121.801693 128.503429,118.279957 C128.047682,115.753389 127.856242,113.330897 127.856242,111.166204 C127.856242,104.112029 132.739663,88.167281 137.889521,78.4800012 C139.089599,76.2225605 140.384589,73.7879876 141.774498,71.1762682 C141.430957,70.7664218 141.109008,70.323331 140.81163,69.8462583 C138.845864,66.6926538 138.699016,63.3285149 139.57927,60.2303594 C140.551849,56.8072538 142.893979,53.6804646 145.837356,51.5314386 C145.951708,51.4250958 146.119885,51.2590092 146.36293,51.0106918 C146.525773,50.8443147 147.198205,50.1485618 147.328036,50.0151133 C147.807319,49.5224772 148.212773,49.1154523 148.63808,48.7049754 C150.509581,46.8987285 152.329715,45.4578888 154.468086,44.270271 C157.430605,42.6249342 160.667454,41.7020796 164.153945,41.7020796 C176.193673,41.7020796 187.553578,52.2492104 187.372483,63.4975396 C187.294756,68.3254056 185.985444,73.1498311 183.528502,79.09684 C182.659002,81.201457 181.689962,83.3528591 180.282125,86.3544057 C180.145512,86.6456711 179.877102,87.2154565 179.591724,87.8207417 C181.070842,85.5931918 182.536903,83.2643193 183.951594,80.9029655 Z M26.0763645,57.1647112 C6.77252628,52.3057313 -2.5450996,38.4145348 0.600520583,18.8742808 C2.00435517,10.1538113 12.9756882,7.23213587 18.4574506,14.1189649 C20.1988926,16.3067673 22.4462592,17.7253615 25.5236283,18.4999677 C34.1481823,20.6708591 44.8502693,19.4942912 59.4557759,15.233418 C63.7919152,13.9684335 68.0232045,12.590421 74.6835592,10.3198329 C74.3707072,10.4264876 79.7578898,8.5858237 81.2387811,8.08392762 C83.740573,7.23603311 85.8096812,6.54802736 87.7820464,5.91231358 C92.6995278,4.32735817 96.8557347,3.12359691 100.755602,2.19327562 C110.815749,-0.206592709 119.080112,-0.747930396 126.512394,1.12285355 C136.478167,3.63134381 143.399886,9.00213019 146.915819,16.3837074 C149.504305,21.8181398 149.919218,27.7190746 148.831656,32.435683 C147.279258,39.168218 143.838958,45.0716219 139.282433,49.5365912 C134.81606,53.9132194 129.477787,56.7702691 124.33113,56.6634536 C119.057316,56.5539992 114.484984,53.4622426 112.650407,48.3029966 C112.396465,47.588854 112.225629,46.8601709 112.134405,46.1292813 C106.348169,45.9246745 98.6226575,47.0880618 87.2208937,49.6826679 C78.8909556,63.2425485 71.6458743,77.9211436 65.4872155,93.7260466 C61.7136773,103.410039 59.5687496,110.917409 59.0140957,116.006361 C58.8978467,117.072947 58.8580473,117.98507 58.8846164,118.731694 C58.8936249,118.984843 58.9095806,119.205658 58.9300433,119.393503 C62.1887179,122.436312 63.1408683,127.356291 61.0874561,131.471564 C56.6283726,140.408079 48.2474653,145.027657 37.6509682,145.027657 C33.3265637,145.027657 28.007059,143.254654 23.7723292,140.177273 C17.9030531,135.912065 14.2578333,129.417313 14.2578333,121.440231 C14.2578333,118.085949 14.5624812,114.849065 15.1691574,111.547738 C15.8486347,107.850252 16.8767421,104.160999 18.4369103,99.5495496 C19.3486132,96.8547937 23.4259071,85.5853582 23.0884533,86.5308393 C25.2300565,80.5304753 29.4187183,71.2375884 35.7048844,58.5073122 C32.2864314,58.3623589 29.096625,57.9249426 26.0763645,57.1647112 Z M229.832642,163.263179 C222.618143,163.136289 213.272112,164.26367 201.278287,166.60362 C192.016984,168.410466 184.858175,170.073041 165.332539,174.80937 C163.905484,175.15553 162.827815,175.416664 161.774109,175.6715 C145.751565,179.546517 135.995104,181.743509 126.166277,183.552735 C113.358797,185.910252 102.753181,187.075302 93.6712904,186.915567 C74.2516879,186.57401 60.1000906,183.013242 50.6489719,176.136757 C41.4437674,169.439198 37.1572577,159.962608 37.3436266,149.204065 C37.5551532,136.99325 42.89189,126.793151 52.8323543,119.454121 C59.1094039,114.819785 68.002351,118.777699 68.847753,126.581968 C69.2896005,130.660853 71.0309697,133.344588 74.6659023,135.483267 C79.3434473,138.235387 86.9174819,139.871713 97.3304051,140.054859 C112.261226,140.317465 126.101931,139.388412 139.784399,137.392957 C150.680592,135.803855 160.615599,133.725169 173.984621,130.441239 C173.814889,130.482932 188.77693,126.749864 192.908727,125.771745 C200.025892,124.086902 205.883577,122.879031 211.572483,121.979761 C219.716668,120.692375 227.303194,120.090433 234.890585,120.223882 C245.100646,120.403459 255.79042,123.100624 264.132142,127.760314 C268.877278,130.410949 272.846012,133.671844 275.765125,137.534893 C279.233981,142.125454 281.111956,147.440794 281.01335,153.133007 C280.776986,166.777599 272.544976,176.763372 258.320259,182.020481 C250.083923,185.064429 242.178944,176.799547 245.480485,168.596131 C245.831834,167.723127 246.039724,166.998803 246.127245,166.43647 C246.140641,166.3504 246.150578,166.272073 246.157505,166.201371 C244.079973,164.661348 238.5326,163.416197 229.832642,163.263179 Z M101.342336,42.172636 L115.706822,42.172636 L115.706822,51.0348179 L101.342336,51.0348179 L101.342336,42.172636 Z M68.0897532,68.7643076 C67.1220585,65.8501174 67.4250698,63.2322943 68.363478,60.6947335 C69.3636182,57.9902426 71.276338,55.1608786 74.1722176,51.8422848 C74.5072034,51.4584007 76.7297391,48.7465959 77.5096045,47.9051183 C81.5018487,43.5974727 86.1305645,41.7166807 92.882293,41.7166807 C97.2625298,41.7166807 101.037272,42.4418295 104.262268,44.0870065 C106.359272,45.1567577 108.14411,46.5869141 109.558217,48.3105244 C114.556275,44.1332478 119.808166,41.7020796 125.632649,41.7020796 C132.405085,41.7020796 137.956017,43.4033567 142.007584,47.1628971 C146.052852,50.9165923 147.798335,55.9501405 147.681049,61.3696792 C147.640188,63.2578113 147.378255,65.1535701 146.93008,67.053172 C147.175981,67.1833312 147.420193,67.324904 147.662335,67.4783332 C150.084206,69.0129072 151.707899,71.4156387 152.320916,74.1037838 C152.743391,75.9563787 152.657489,77.6873116 152.257526,79.3194849 C152.000564,80.3680989 151.620356,81.3324578 151.141892,82.2618886 C147.444696,89.4437994 142.73374,97.101077 138.210516,103.029104 C135.467007,106.624682 132.794759,109.5984 130.164322,111.861381 C126.293108,115.19181 122.386803,117.202542 117.833539,117.202542 C116.390993,117.202542 115.032903,117.113706 113.423217,116.825326 C110.955775,116.383278 108.557411,115.551243 106.292923,114.185869 C102.98407,112.190793 100.436505,109.336793 98.7897192,105.777824 C97.3265078,109.178132 96.1719578,112.683326 95.3222054,116.159953 C94.9328865,117.752791 94.6250283,119.275418 94.4007876,120.660535 C99.1850974,124.475157 99.7174541,132.176833 94.5723743,136.504068 C88.1193165,141.93137 81.9820778,144.893021 75.6797199,144.754897 C73.5486898,144.708193 71.6643843,144.528332 69.7094859,144.098704 C66.9814278,143.499159 64.4332751,142.458019 62.105302,140.841093 C56.6310199,137.038851 53.4589899,130.82227 52.7034691,122.68297 C51.6441119,111.270409 56.9472792,94.033616 68.4583618,69.7258051 C68.322597,69.4152189 68.1994379,69.0946209 68.0897532,68.7643076 Z" id="blue" fill="#0E0E0E"></path>
                <path d="M196.760854,134.7697 C170.586089,140.988687 141.714122,150.581768 97.7098874,149.795725 C73.7554407,149.36783 60.9872522,141.738132 59.4053218,126.906633 C52.0048649,132.455691 48.2268741,139.789306 48.0713494,148.90748 C47.8380623,162.584742 57.1171569,175.961266 94.4072788,176.627375 C131.697401,177.293483 195.697887,152.017578 230.389566,152.637271 C251.965136,153.022672 260.233124,159.574131 255.193528,172.291644 C265.729668,168.336945 271.076364,161.749911 271.235733,152.530543 C271.326496,147.085022 268.359463,142.431958 263.697154,138.773213 C255.273286,137.818118 247.082455,134.880521 240.3409,130.036293 C238.57888,129.831938 236.820269,129.712517 235.089164,129.681594 C229.995505,129.590607 225.028789,129.874085 220.101161,130.434861 C215.428133,134.106549 210.149732,136.002557 204.385195,136.002557 C201.592145,136.002557 199.046203,135.574048 196.760854,134.7697 Z" id="swoosh" fill="#FFFFFF"></path>
                <path d="M256.264817,93.2374809 C252.322646,103.565968 249.056053,118.157391 258.301565,123.624092 C260.543668,124.950217 269.891716,128.018184 283.204299,117.532456 C300.027497,104.281159 314.809317,70.5434627 302.23957,56.2482152 C300.111263,53.8277402 299.187618,53.6498964 297.175004,52.7969519 C303.792257,52.4329176 311.157089,53.7969225 316.938255,59.7007626 C330.798325,73.8557253 318.360709,108.663374 294.969253,126.867336 C280.406175,138.200551 257.265387,137.208927 242.917889,126.985791 C233.01157,119.926941 231.554918,108.86826 231.925552,100.853098 C225.360565,121.571266 216.027697,131.930351 203.92695,131.930351 C185.904566,131.930351 186.097201,109.991481 189.334594,105.386952 C187.925189,107.417737 174.020645,133.055066 156.691472,133.055066 C139.3623,133.055066 138.003819,116.397102 138.003819,111.714013 C138.003819,107.030926 142.052722,92.7522964 146.824412,83.7230375 C150.005539,77.7035315 153.855309,70.4287167 158.373722,61.8985929 C155.915886,64.1182665 153.355854,65.2470895 150.693626,65.2850616 C148.024733,65.3231288 149.314757,61.8735656 151.855002,60.0553607 C154.395247,58.2371558 158.006601,52.1770807 164.160489,52.1770807 C171.162271,52.1770807 177.335048,58.6945323 177.255654,63.6553069 C177.140779,70.8328873 172.356531,79.5674804 167.594301,90.0182001 C162.832072,100.46892 159.368406,114.733037 166.836237,114.733037 C174.304067,114.733037 185.997346,97.6544187 192.571987,86.6150411 C196.955082,79.2554562 201.596715,71.2860448 206.49689,62.7068071 C203.351836,64.2968795 201.26104,65.0919158 200.2245,65.0919158 C198.669691,65.0919158 199.222917,63.7621583 200.734513,61.7695986 C202.246108,59.7770388 205.99585,52.2571276 213.098033,52.2571276 C220.200217,52.2571276 227.550912,55.9966283 227.550912,63.6553069 C227.550912,73.1593045 223.018623,79.0996985 217.153079,89.1087268 C211.287535,99.1177552 207.278922,112.677963 213.404829,112.677963 C217.198665,112.677963 224.058517,103.731837 233.984386,85.8395824 C244.633896,62.4446476 258.259038,46.8148052 282.746585,54.0511687 C309.299048,61.8978089 287.00383,110.137488 268.100689,108.820031 C256.96113,108.04401 255.641229,99.5766785 256.256856,93.2250436 L256.264817,93.2374809 Z M258.050846,88.9081641 L258.048743,88.9379119 L258.047457,88.9446786 C258.257013,91.8664869 258.67208,95.6351126 261.848848,96.3041853 C267.788065,97.5548709 273.552479,86.5423522 276.622448,80.5727036 C283.589625,67.0241436 280.559799,52.2204038 261.304522,82.4557946 C260.774752,83.2875795 259.488897,85.6660444 258.050846,88.9081641 Z M53.0316469,47.1889837 C43.9954053,48.7234245 35.5929711,49.2571432 28.6976437,47.5112023 C14.4595316,43.9060215 8.48571865,34.9470278 10.7762047,20.6342215 C13.9204569,24.607872 18.0820033,27.2503551 23.2608439,28.5616706 C55.7779341,36.7952055 99.4962716,4.8673269 124.123548,11.1031106 C140.065014,15.1395918 141.135141,26.8772573 140.352886,30.2899473 C137.961535,40.722535 128.262891,46.7817896 124.594886,46.7052102 C123.385029,46.6799513 122.594481,46.1422154 122.223242,45.0920025 C124.592693,43.1874461 124.961771,38.1608334 118.966784,36.8844194 C108.815079,34.7229838 95.1750067,37.5066189 81.0059359,40.901359 C71.4029075,56.0631088 63.1416024,72.5755731 56.2220208,90.4387523 C48.0868672,111.439979 46.7482934,123.794388 52.2062994,127.50198 C49.5676322,132.821597 44.7706731,135.481406 37.8154224,135.481406 C34.2709182,135.481406 24.5472128,132.119081 24.5472128,122.036194 C24.5472128,111.953307 27.904078,104.150473 32.7690477,90.4387523 C35.5327888,82.6492596 42.2869886,68.2326701 53.0316469,47.1889837 Z M82.7112768,64.1781048 C80.6558587,65.6078854 79.2053136,66.2956938 78.3596415,66.24153 C77.2674331,66.2480059 77.1843022,64.2869875 81.8664677,58.8894758 C85.6333714,54.5470606 86.3104168,52.1917502 92.9778034,52.1917502 C114.461238,52.1917502 95.5177882,75.8992837 95.7482738,81.0074016 C102.18491,75.5918426 113.408524,52.1770807 125.687278,52.1770807 C144.454226,52.1770807 136.290301,69.476576 132.997866,74.5431163 C129.705431,79.6096566 121.067174,94.8141122 124.897837,94.8141122 C127.329774,94.8141122 135.199518,83.377236 139.729436,77.9461443 C141.324201,76.0341215 143.297199,75.8148914 142.206526,77.9461443 C136.002715,90.0688435 124.633205,107.525877 117.897904,107.525877 C115.742993,107.525877 106.814923,107.272936 106.814923,95.6414383 C106.814923,84.0099405 112.185917,80.6551241 110.28757,78.5263886 C108.389224,76.3976529 100.513533,81.9514518 92.9778034,95.3825102 C85.4420743,108.813568 83.8619318,122.391799 84.0136908,125.200806 C84.1148634,127.073476 85.5115659,128.437631 88.2037982,129.29327 C83.4537293,133.312024 79.3910692,135.284196 76.0158181,135.209783 C70.9529413,135.098165 63.9722222,133.93908 62.900819,122.328154 C61.9379799,111.893752 68.5414659,92.5104019 82.7112768,64.1781048 Z" id="white" fill="#FFFFFF"></path>
            </g>
        </g>
    </g>
</svg>