<?xml version="1.0" encoding="UTF-8"?>
<svg width="114px" height="36px" viewBox="0 0 114 36" version="1.1" xmlns="http://www.w3.org/2000/svg" xmlns:xlink="http://www.w3.org/1999/xlink">
    <!-- Generator: Sketch 58 (84663) - https://sketch.com -->
    <title>store-badge-google-play</title>
    <desc>Created with Sketch.</desc>
    <defs>
        <linearGradient x1="60.9106226%" y1="4.95%" x2="26.6968198%" y2="71.88%" id="linearGradient-1">
            <stop stop-color="#00A0FF" offset="0%"></stop>
            <stop stop-color="#00A1FF" offset="1%"></stop>
            <stop stop-color="#00BEFF" offset="26%"></stop>
            <stop stop-color="#00D2FF" offset="51%"></stop>
            <stop stop-color="#00DFFF" offset="76%"></stop>
            <stop stop-color="#00E3FF" offset="100%"></stop>
        </linearGradient>
        <linearGradient x1="107.68%" y1="50%" x2="-130.64%" y2="50%" id="linearGradient-2">
            <stop stop-color="#FFE000" offset="0%"></stop>
            <stop stop-color="#FFBD00" offset="41%"></stop>
            <stop stop-color="#FFA500" offset="78%"></stop>
            <stop stop-color="#FF9C00" offset="100%"></stop>
        </linearGradient>
        <linearGradient x1="86.27%" y1="30.7357281%" x2="-50.18%" y2="136.709332%" id="linearGradient-3">
            <stop stop-color="#FF3A44" offset="0%"></stop>
            <stop stop-color="#C31162" offset="100%"></stop>
        </linearGradient>
        <linearGradient x1="-18.82%" y1="-12.3474688%" x2="42.09%" y2="34.978694%" id="linearGradient-4">
            <stop stop-color="#32A071" offset="0%"></stop>
            <stop stop-color="#2DA771" offset="7%"></stop>
            <stop stop-color="#15CF74" offset="48%"></stop>
            <stop stop-color="#06E775" offset="80%"></stop>
            <stop stop-color="#00F076" offset="100%"></stop>
        </linearGradient>
    </defs>
    <g id="Page-1" stroke="none" stroke-width="1" fill="none" fill-rule="evenodd">
        <g id="Artboard" transform="translate(-494.000000, -369.000000)" fill-rule="nonzero">
            <g id="store-badge-google-play" transform="translate(494.000000, 369.000000)">
                <path d="M8.57263175,0 L7.58963664,0 L6.76666399,0.0136726168 C6.15857865,0.0182301557 5.55506537,0.0729206229 4.96069624,0.173186479 C2.49400274,0.57362338 0.563696083,2.50698395 0.17373867,4.96771743 C0.0731531242,5.56019749 0.0228603513,6.16179263 0.0137162108,6.76794531 C0.00457207027,7.04139765 0.00457207027,7.31940752 0,7.59741739 L0,28.4025826 L0.0137162108,29.2320547 C0.0228603513,29.8336498 0.0731531242,30.4398025 0.17373867,31.0322826 C0.274324216,31.6293202 0.461779097,32.2081276 0.736103313,32.7459172 C1.01042753,33.2882643 1.36704901,33.775921 1.79682361,34.2043297 C2.22202615,34.6281808 2.71123767,34.9882264 3.25074196,35.2616787 C3.79024625,35.535131 4.3663271,35.7265477 4.96069624,35.8313711 C5.55506537,35.9270794 6.15857865,35.9817698 6.76209192,35.9863274 L7.58506457,36 L106.405791,36 C106.680116,36 106.959012,35.9954425 107.233336,35.9863274 C107.836877,35.9803369 108.439084,35.928535 109.034732,35.8313711 C109.629101,35.7265477 110.209754,35.535131 110.749258,35.2616787 C112.392897,34.4226743 113.534864,32.8506841 113.821689,31.0322826 C113.922275,30.4398025 113.97714,29.8336498 113.990856,29.2320547 L113.990856,28.4025826 C114,28.0744398 114,27.7508545 114,27.4181542 L114,8.5818458 C114,8.253703 114,7.9255602 113.990856,7.60197493 L113.990856,6.77250285 C113.979406,6.1675605 113.922861,5.56430336 113.821689,4.96771743 C113.422904,2.51059878 111.497366,0.580180371 109.034732,0.16862894 C108.440363,0.0729206229 107.836849,0.0182301557 107.233336,0.0136726168 L106.405791,0 L8.57263175,0 Z" id="Path" fill="#A6A6A6"></path>
                <path d="M7.77738918,35 C7.50410736,35 7.23993493,35 6.97120781,34.9909993 C6.40965612,34.9841488 5.84939919,34.9360123 5.2950793,34.8469887 C4.78039854,34.7569821 4.27938186,34.5949702 3.81480277,34.360953 C3.35079214,34.1279161 2.92784952,33.8224734 2.56226108,33.4563865 C2.19217516,33.0941402 1.88447553,32.6745832 1.65132168,32.2142952 C1.41242032,31.7513901 1.24653551,31.2551229 1.1594144,30.742687 C1.06832046,30.1891463 1.02277349,29.6356056 1.01366409,29.0775645 C1.0045547,28.8885506 1,28.267505 1,28.267505 L1,7.72799471 C1,7.72799471 1.0045547,7.11144937 1.01366409,6.93143614 C1.01821879,6.3733951 1.06832046,5.8198544 1.1594144,5.2663137 C1.24513332,4.75269746 1.40946569,4.25496252 1.64676698,3.79020516 C2.36690996,2.38868789 3.72050943,1.41068304 5.2905246,1.15751158 C5.85075234,1.06750496 6.41098007,1.01800132 6.97576251,1.00900066 L7.78194388,1 L106.213501,1 L107.033347,1.00900066 C107.58902,1.01800132 108.144693,1.06750496 108.695811,1.15301125 C110.825426,1.49931265 112.492565,3.15198843 112.836031,5.25731304 C112.927125,5.81085374 112.981781,6.3733951 112.990891,6.93593647 L112.990891,7.72799471 C113,8.06101919 113,8.37604236 113,8.69556585 L113,27.2999338 L112.995445,28.254004 L112.990891,29.0820649 C112.979839,29.6340934 112.928082,30.1845921 112.836031,30.729186 C112.677727,31.759245 112.18922,32.7119769 111.442294,33.4473858 C111.077918,33.8119126 110.654331,34.1224355 110.189752,34.3519523 C109.720618,34.5904699 109.215047,34.7569821 108.695811,34.8424884 C108.144693,34.932495 107.584465,34.9774983 107.024237,34.986499 L106.218056,34.9954997 L7.77738918,34.9954997 L7.77738918,35 Z" id="Path" fill="#000000"></path>
                <g id="Group" transform="translate(32.000000, 6.000000)" fill="#FFFFFF">
                    <path d="M5.71646341,3.13679245 C5.88816873,3.94554076 5.68504836,4.79064302 5.16697068,5.423011 C4.64889299,6.05537898 3.87491841,6.40292328 3.07317073,6.36320755 C2.31120164,6.3693049 1.58030492,6.0520609 1.05182927,5.48584906 C0.514910076,4.91346991 0.219034666,4.14543441 0.228658537,3.3490566 C0.218943226,2.56183794 0.507763324,1.80184807 1.03353659,1.23113208 C1.55042037,0.667875142 2.26643527,0.344555079 3.01829268,0.33490566 C3.40243902,0.33490566 3.78658537,0.41509434 4.13871951,0.580188679 C4.47713415,0.721698113 4.77896341,0.938679245 5.02134146,1.22169811 L5.06707317,1.28773585 L4.48170732,1.91509434 L4.4222561,1.83962264 C4.09243171,1.42332465 3.59420763,1.18815397 3.07317073,1.20283019 C2.53810976,1.20283019 2.02591463,1.42924528 1.6554878,1.83490566 C1.28392339,2.2438196 1.08632636,2.78901343 1.10670732,3.3490566 C1.08384146,3.91509434 1.28506098,4.46226415 1.6554878,4.86320755 C2.02247342,5.2677783 2.53602482,5.49674574 3.07317073,5.49528302 C3.60298498,5.50612616 4.11328313,5.28909419 4.48170732,4.89622642 C4.7195122,4.62735849 4.86585366,4.28301887 4.89329268,3.91981132 L2.98170732,3.91981132 L2.98170732,3.06132075 L5.71646341,3.06132075 L5.71646341,3.13679245 L5.71646341,3.13679245 Z M9.82317073,1.33490566 L7.41768293,1.33490566 L7.41768293,2.91981132 L9.58536585,2.91981132 L9.58536585,3.77830189 L7.41768293,3.77830189 L7.41768293,5.36320755 L9.82317073,5.36320755 L9.82317073,6.24056604 L6.55335366,6.24056604 L6.55335366,0.45754717 L9.82317073,0.45754717 L9.82317073,1.33490566 Z M10.3536585,0.45754717 L14.1631098,0.45754717 L14.1631098,1.33490566 L12.6905488,1.33490566 L12.6905488,6.24056604 L11.8353659,6.24056604 L11.8353659,1.33490566 L10.3536585,1.33490566 L10.3536585,0.45754717 Z M16.6189024,0.45754717 L17.4786585,0.45754717 L17.4786585,6.24056604 L16.6234756,6.24056604 L16.6234756,0.45754717 L16.6189024,0.45754717 Z M18.1554878,0.45754717 L21.964939,0.45754717 L21.964939,1.33490566 L20.492378,1.33490566 L20.492378,6.24056604 L19.6371951,6.24056604 L19.6371951,1.33490566 L18.1554878,1.33490566 L18.1554878,0.45754717 Z M28.8246951,1.21226415 C29.3557894,1.78710994 29.6450955,2.55516045 29.6295732,3.3490566 C29.6478659,4.1509434 29.3551829,4.91981132 28.8246951,5.48584906 C28.016968,6.34922541 26.7751614,6.60615109 25.7071009,6.13086897 C24.6390404,5.65558686 23.9681724,4.54752954 24.0228659,3.3490566 C24.0045732,2.54716981 24.2926829,1.77830189 24.8231707,1.21226415 C25.3352693,0.633108785 26.0665713,0.312790108 26.8262195,0.33490566 C27.5842876,0.314173625 28.3136502,0.634373898 28.8246951,1.21226415 L28.8246951,1.21226415 Z M26.8262195,5.49528302 C27.3559029,5.50994101 27.8659605,5.28815496 28.2256098,4.88679245 C28.5947574,4.4674877 28.7886667,3.91492583 28.7652439,3.3490566 C28.7789634,2.77830189 28.5777439,2.21698113 28.1981707,1.81132075 C27.8373695,1.42833318 27.3416679,1.2122379 26.8239329,1.2122379 C26.306198,1.2122379 25.8104964,1.42833318 25.4496951,1.81132075 C25.0701409,2.22585528 24.8661079,2.77913285 24.882622,3.3490566 C24.8689024,3.91981132 25.070122,4.48113208 25.4496951,4.88679245 C25.8064024,5.28301887 26.304878,5.5 26.8216463,5.49528302 L26.8262195,5.49528302 Z M33.804878,0.45754717 L34.6646341,0.45754717 L34.6646341,6.24056604 L33.8140244,6.24056604 L33.7911585,6.19339623 L31.2393293,1.87735849 L31.257622,2.66037736 L31.257622,6.24528302 L30.402439,6.24528302 L30.402439,0.452830189 L31.3719512,0.452830189 L33.8231707,4.61320755 L33.804878,3.82075472 L33.804878,0.452830189 L33.804878,0.45754717 Z M23.9634146,13.6698113 C21.8974073,13.6750279 20.2266762,15.406752 20.2317182,17.5377281 C20.2367831,19.6687042 21.9157074,21.3919775 23.9817147,21.3867811 C26.0477221,21.3815613 27.7184598,19.6498441 27.7134146,17.5188679 C27.7285035,16.4900527 27.3376585,15.4990711 26.6305524,14.7732867 C25.9234463,14.0475023 24.9607779,13.6492173 23.9634146,13.6698113 L23.9634146,13.6698113 Z M23.9634146,19.8490566 C23.0331314,19.9188837 22.15624,19.394201 21.7531907,18.5265827 C21.3501415,17.6589643 21.503109,16.6253019 22.1387485,15.9212142 C22.7743881,15.2171265 23.7631043,14.9861642 24.6308292,15.3390689 C25.4985541,15.6919735 26.0683742,16.5567941 26.0670732,17.5188679 C26.0955927,18.118208 25.8883535,18.704047 25.4923244,19.14361 C25.0962954,19.5831731 24.5450109,19.8392392 23.9634146,19.8537736 L23.9634146,19.8490566 Z M15.777439,13.6698113 C13.7114317,13.6750279 12.0407006,15.406752 12.0457426,17.5377281 C12.0508075,19.6687042 13.7297318,21.3919775 15.7957391,21.3867811 C17.8617465,21.3815613 19.5324842,19.6498441 19.527439,17.5188679 C19.5425279,16.4900527 19.1516829,15.4990711 18.4445768,14.7732867 C17.7374707,14.0475023 16.7748022,13.6492173 15.777439,13.6698113 Z M15.777439,19.8490566 C14.8471558,19.9188837 13.9702644,19.394201 13.5672151,18.5265827 C13.1641659,17.6589643 13.3171334,16.6253019 13.9527729,15.9212142 C14.5884125,15.2171265 15.5771287,14.9861642 16.4448536,15.3390689 C17.3125785,15.6919735 17.8823986,16.5567941 17.8810976,17.5188679 C17.9096171,18.118208 17.7023779,18.704047 17.3063488,19.14361 C16.9103197,19.5831731 16.3590353,19.8392392 15.777439,19.8537736 L15.777439,19.8490566 Z M6.03658537,14.8584906 L6.03658537,16.490566 L9.83231707,16.490566 C9.77229185,17.2570751 9.46286705,17.980161 8.95426829,18.5424528 C8.18509837,19.3510171 7.12021719,19.7862518 6.02286585,19.740566 C4.13642187,19.735629 2.48323172,18.4375098 1.97647617,16.5632568 C1.46972062,14.6890039 2.23300772,12.695786 3.84471683,11.6846066 C5.45642594,10.6734273 7.5234282,10.8909338 8.90396341,12.2169811 L10.0152439,11.0707547 C8.95809483,9.99118467 7.52404167,9.39612466 6.03658537,9.41981132 C3.91328163,9.33855238 1.91643284,10.4597092 0.829985076,12.3431251 C-0.25646269,14.226541 -0.259076145,16.5715599 0.823170732,18.4575472 C1.91167248,20.3418859 3.91158307,21.4619506 6.03658537,21.3773585 C7.55945122,21.4386792 9.0320122,20.8301887 10.0884146,19.7028302 C11.0119284,18.6591392 11.5041554,17.2849489 11.4603659,15.8726415 C11.4603659,15.5330189 11.4329268,15.1933962 11.3780488,14.8584906 L6.04115854,14.8584906 L6.03658537,14.8584906 Z M45.8323171,16.1320755 C45.3623538,14.7083127 44.0883603,13.7321568 42.6310976,13.6792453 C41.6623628,13.6800547 40.7368533,14.0929977 40.0729435,14.8206402 C39.4090336,15.5482827 39.0655275,16.5261757 39.1234756,17.5235849 C39.1088479,19.2214542 40.1797074,20.7266091 41.7544015,21.2215035 C43.3290956,21.7163978 45.0317322,21.0828964 45.9375,19.6650943 L44.6615854,18.759434 C44.2766764,19.4219553 43.5811241,19.8255068 42.8323171,19.8207547 C42.050634,19.856353 41.3286057,19.391129 41.0167683,18.6509434 L46.0152439,16.5283019 L45.8323171,16.1273585 L45.8323171,16.1320755 Z M40.7378049,17.4150943 C40.701599,16.8478374 40.8890028,16.2895354 41.2575144,15.8668074 C41.626026,15.4440793 42.1444177,15.1927472 42.695122,15.1698113 C43.2713415,15.1320755 43.8155488,15.4528302 44.0762195,15.9811321 L40.7378049,17.4150943 Z M36.6814024,21.1415094 L38.3231707,21.1415094 L38.3231707,9.8254717 L36.6768293,9.8254717 L36.6768293,21.1320755 L36.6814024,21.1415094 Z M33.992378,14.5377358 L33.9329268,14.5377358 C33.428928,13.9707737 32.7120096,13.6560721 31.9664634,13.6745283 C29.9920143,13.7980305 28.452051,15.4856634 28.452051,17.5259434 C28.452051,19.5662234 29.9920143,21.2538563 31.9664634,21.3773585 C32.7200461,21.3928129 33.4410376,21.0607583 33.9329268,20.4716981 L33.992378,20.4716981 L33.992378,21.0235849 C33.992378,22.5 33.2286585,23.2877358 31.9984756,23.2877358 C31.1581591,23.2691755 30.4119983,22.7287609 30.1097561,21.9198113 L28.6920732,22.5283019 C29.2311758,23.920086 30.5455349,24.8257552 31.9984756,24.8066038 C33.9192073,24.8066038 35.5106707,23.6415094 35.5106707,20.7971698 L35.5106707,13.8962264 L33.992378,13.8962264 L33.992378,14.5283019 L33.992378,14.5377358 Z M32.1036585,19.8584906 C30.8942191,19.8023783 29.94166,18.7746769 29.94166,17.5259434 C29.94166,16.2772099 30.8942191,15.2495084 32.1036585,15.1933962 C32.6719373,15.2198086 33.2056209,15.482477 33.5830128,15.9215049 C33.9604047,16.3605328 34.1493298,16.9384902 34.1067073,17.5235849 C34.1559378,18.1107067 33.9694639,18.6929492 33.5908485,19.134292 C33.2122331,19.5756348 32.6746399,19.83742 32.1036585,19.8584906 L32.1036585,19.8584906 Z M53.5243902,9.83018868 L49.5914634,9.83018868 L49.5914634,21.1320755 L51.2332317,21.1320755 L51.2332317,16.8396226 L53.5243902,16.8396226 C54.8129147,16.9590946 56.0563203,16.3175479 56.7363685,15.1823725 C57.4164167,14.0471972 57.4164167,12.6131801 56.7363685,11.4780048 C56.0563203,10.3428295 54.8129147,9.70128278 53.5243902,9.82075472 L53.5243902,9.83018868 Z M53.5243902,15.254717 L51.2332317,15.254717 L51.2332317,11.4056604 L53.5609756,11.4056604 C54.5965095,11.4056604 55.4359756,12.2715248 55.4359756,13.3396226 C55.4359756,14.4077205 54.5965095,15.2735849 53.5609756,15.2735849 L53.5243902,15.259434 L53.5243902,15.254717 Z M63.6585366,13.6367925 C62.4350234,13.5579626 61.2837213,14.2389234 60.7317073,15.3679245 L62.1859756,15.990566 C62.4859355,15.4364776 63.0729846,15.115262 63.6859756,15.1698113 C64.1068426,15.1196133 64.5296474,15.2455986 64.8597232,15.5195589 C65.1897989,15.7935192 65.3995718,16.1925684 65.4420732,16.6273585 L65.4420732,16.7358491 C64.9145243,16.4502231 64.3275185,16.3012851 63.7317073,16.3018868 C62.1676829,16.3018868 60.5670732,17.2028302 60.5670732,18.8490566 C60.5971396,19.558101 60.9055165,20.2240343 61.4213172,20.6937784 C61.9371178,21.1635225 62.6159712,21.3966683 63.3018293,21.3396226 C64.1419177,21.3883261 64.9423138,20.9665304 65.3963415,20.2358491 L65.4466463,20.2358491 L65.4466463,21.1415094 L67.0289634,21.1415094 L67.0289634,16.7877358 C67.0289634,14.8066038 65.570122,13.6556604 63.6996951,13.6556604 L63.6631098,13.6367925 L63.6585366,13.6367925 Z M63.4573171,19.8396226 C62.9222561,19.8396226 62.1768293,19.5566038 62.1768293,18.8773585 C62.1768293,17.9716981 63.1051829,17.6650943 63.9329268,17.6650943 C64.4536257,17.6513662 64.9683944,17.7816622 65.4237805,18.0424528 C65.3118338,19.0606903 64.4871982,19.8366821 63.4939024,19.8584906 L63.4573171,19.8396226 L63.4573171,19.8396226 Z M72.7865854,13.9009434 L70.9070122,18.8066038 L70.8521341,18.8066038 L68.9039634,13.9009434 L67.1478659,13.9009434 L70.0746951,20.759434 L68.4009146,24.5707547 L70.1615854,24.5707547 L74.6112805,13.9009434 L72.7820122,13.9009434 L72.7865854,13.9009434 Z M58.0335366,21.1367925 L59.6707317,21.1367925 L59.6707317,9.8254717 L58.0335366,9.8254717 L58.0335366,21.1320755 L58.0335366,21.1367925 Z" id="Shape"></path>
                </g>
                <g id="Group" transform="translate(8.000000, 8.000000)">
                    <path d="M0.368780488,0.493043478 C0.12746953,0.793206442 0.00827939131,1.17376426 0.0351219512,1.55836957 L0.0351219512,18.4363043 C0.0087804878,18.8236957 0.136097561,19.2066848 0.390731707,19.5016304 L0.443414634,19.5632609 L9.83853659,10.1117935 L9.83853659,9.88288043 L0.425853659,0.435815217 L0.373170732,0.493043478 L0.368780488,0.493043478 Z" id="Path" fill="url(#linearGradient-1)"></path>
                    <path d="M12.96,13.26375 L9.84292683,10.1117935 L9.84292683,9.88288043 L12.96,6.73092391 L13.0258537,6.77494565 L16.757561,8.89679348 C17.8243902,9.4998913 17.8243902,10.4947826 16.757561,11.1022826 L13.0434146,13.2241304 L12.9556098,13.26375 L12.96,13.26375 Z" id="Path" fill="url(#linearGradient-2)"></path>
                    <path d="M13.0521951,13.2241304 L9.84292683,9.99733696 L0.364390244,19.5060326 C0.807068079,19.9013095 1.46801582,19.9235244 1.93609756,19.5588587 L13.0434146,13.2241304" id="Path" fill="url(#linearGradient-3)"></path>
                    <path d="M13.0521951,6.77934783 L1.94487805,0.444619565 C1.4786742,0.0732210187 0.813642776,0.0917959094 0.368780488,0.488641304 L9.84292683,9.99733696 L13.0478049,6.77934783 L13.0521951,6.77934783 Z" id="Path" fill="url(#linearGradient-4)"></path>
                    <g transform="translate(0.000000, 12.766304)" fill="#000000" id="Path">
                        <path d="M12.96,0.38298913 L1.9404878,6.67809783 C1.49106308,7.01854542 0.870888144,7.01854542 0.421463415,6.67809783 L0.368780488,6.73092391 L0.421463415,6.78815217 C0.873658537,7.13152174 1.49268293,7.13152174 1.94487805,6.78815217 L13.0521951,0.457826087 L12.96,0.38298913 L12.96,0.38298913 Z" opacity="0.2"></path>
                        <path d="M0.368780488,6.62967391 C0.125332348,6.32723143 0.00601269648,5.94311158 0.0351219512,5.55554348 L0.0351219512,5.67 C0.0087804878,6.0573913 0.136097561,6.44038043 0.390731707,6.73532609 L0.443414634,6.6825 L0.368780488,6.62967391 L0.368780488,6.62967391 Z" opacity="0.12"></path>
                    </g>
                    <path d="M16.7619512,10.9878261 L12.96,13.1448913 L13.0258537,13.2241304 L16.757561,11.0934783 C17.2080147,10.9032921 17.5181771,10.4807305 17.5653659,9.99293478 C17.4687805,10.4375543 17.1702439,10.807337 16.7619512,10.9878261 L16.7619512,10.9878261 Z" id="Path" fill="#000000" opacity="0.12"></path>
                    <path d="M1.94487805,0.550271739 L16.7619512,9.00244565 C17.1717464,9.18901669 17.4684575,9.56009608 17.5609756,10.0017391 C17.5146017,9.51495697 17.2063052,9.09264235 16.757561,8.90119565 L1.9404878,0.449021739 C0.882439024,-0.162880435 0.0307317073,0.343369565 0.0307317073,1.56277174 L0.0307317073,1.67722826 C0.0307317073,0.457826087 0.882439024,-0.048423913 1.9404878,0.554673913 L1.94487805,0.550271739 Z" id="Path" fill="#FFFFFF" opacity="0.25"></path>
                </g>
            </g>
        </g>
    </g>
</svg>