<?xml version="1.0" encoding="UTF-8"?>
<svg width="114px" height="36px" viewBox="0 0 114 36" version="1.1" xmlns="http://www.w3.org/2000/svg" xmlns:xlink="http://www.w3.org/1999/xlink">
    <!-- Generator: Sketch 58 (84663) - https://sketch.com -->
    <title>store-badge-apple</title>
    <desc>Created with Sketch.</desc>
    <g id="Page-1" stroke="none" stroke-width="1" fill="none" fill-rule="evenodd">
        <g id="Artboard" transform="translate(-374.000000, -369.000000)" fill-rule="nonzero">
            <g id="store-badge-apple" transform="translate(374.000000, 369.000000)">
                <path d="M8.57263175,0 L7.58963664,0 L6.76666399,0.0136726168 C6.15857865,0.0182301557 5.55506537,0.0729206229 4.96069624,0.173186479 C2.49400274,0.57362338 0.563696083,2.50698395 0.17373867,4.96771743 C0.0731531242,5.56019749 0.0228603513,6.16179263 0.0137162108,6.76794531 C0.00457207027,7.04139765 0.00457207027,7.31940752 0,7.59741739 L0,28.4025826 L0.0137162108,29.2320547 C0.0228603513,29.8336498 0.0731531242,30.4398025 0.17373867,31.0322826 C0.274324216,31.6293202 0.461779097,32.2081276 0.736103313,32.7459172 C1.01042753,33.2882643 1.36704901,33.775921 1.79682361,34.2043297 C2.22202615,34.6281808 2.71123767,34.9882264 3.25074196,35.2616787 C3.79024625,35.535131 4.3663271,35.7265477 4.96069624,35.8313711 C5.55506537,35.9270794 6.15857865,35.9817698 6.76209192,35.9863274 L7.58506457,36 L106.405791,36 C106.680116,36 106.959012,35.9954425 107.233336,35.9863274 C107.836877,35.9803369 108.439084,35.928535 109.034732,35.8313711 C109.629101,35.7265477 110.209754,35.535131 110.749258,35.2616787 C112.392897,34.4226743 113.534864,32.8506841 113.821689,31.0322826 C113.922275,30.4398025 113.97714,29.8336498 113.990856,29.2320547 L113.990856,28.4025826 C114,28.0744398 114,27.7508545 114,27.4181542 L114,8.5818458 C114,8.253703 114,7.9255602 113.990856,7.60197493 L113.990856,6.77250285 C113.979406,6.1675605 113.922861,5.56430336 113.821689,4.96771743 C113.422904,2.51059878 111.497366,0.580180371 109.034732,0.16862894 C108.440363,0.0729206229 107.836849,0.0182301557 107.233336,0.0136726168 L106.405791,0 L8.57263175,0 Z" id="Path" fill="#A6A6A6"></path>
                <path d="M7.77738918,35 C7.50410736,35 7.23993493,35 6.97120781,34.9909993 C6.40965612,34.9841488 5.84939919,34.9360123 5.2950793,34.8469887 C4.78039854,34.7569821 4.27938186,34.5949702 3.81480277,34.360953 C3.35079214,34.1279161 2.92784952,33.8224734 2.56226108,33.4563865 C2.19217516,33.0941402 1.88447553,32.6745832 1.65132168,32.2142952 C1.41242032,31.7513901 1.24653551,31.2551229 1.1594144,30.742687 C1.06832046,30.1891463 1.02277349,29.6356056 1.01366409,29.0775645 C1.0045547,28.8885506 1,28.267505 1,28.267505 L1,7.72799471 C1,7.72799471 1.0045547,7.11144937 1.01366409,6.93143614 C1.01821879,6.3733951 1.06832046,5.8198544 1.1594144,5.2663137 C1.24513332,4.75269746 1.40946569,4.25496252 1.64676698,3.79020516 C2.36690996,2.38868789 3.72050943,1.41068304 5.2905246,1.15751158 C5.85075234,1.06750496 6.41098007,1.01800132 6.97576251,1.00900066 L7.78194388,1 L106.213501,1 L107.033347,1.00900066 C107.58902,1.01800132 108.144693,1.06750496 108.695811,1.15301125 C110.825426,1.49931265 112.492565,3.15198843 112.836031,5.25731304 C112.927125,5.81085374 112.981781,6.3733951 112.990891,6.93593647 L112.990891,7.72799471 C113,8.06101919 113,8.37604236 113,8.69556585 L113,27.2999338 L112.995445,28.254004 L112.990891,29.0820649 C112.979839,29.6340934 112.928082,30.1845921 112.836031,30.729186 C112.677727,31.759245 112.18922,32.7119769 111.442294,33.4473858 C111.077918,33.8119126 110.654331,34.1224355 110.189752,34.3519523 C109.720618,34.5904699 109.215047,34.7569821 108.695811,34.8424884 C108.144693,34.932495 107.584465,34.9774983 107.024237,34.986499 L106.218056,34.9954997 L7.77738918,34.9954997 L7.77738918,35 Z" id="Path" fill="#000000"></path>
                <g id="Group" transform="translate(9.000000, 7.000000)" fill="#FFFFFF">
                    <path d="M13.8778109,11.3353846 C13.8774417,13.11871 14.9330938,14.7299601 16.56,15.4292308 C16.2474459,16.4557296 15.7763199,17.4261087 15.1639801,18.3046154 C14.3400995,19.5507692 13.479602,20.7646154 12.1156219,20.7876923 C10.7882587,20.8153846 10.3397015,19.9938462 8.8200995,19.9938462 C7.27761194,19.9938462 6.80616915,20.7646154 5.52915423,20.8153846 C4.22925373,20.8661538 3.23144279,19.4907692 2.3800995,18.2584615 C0.68199005,15.7384615 -0.64079602,11.1646154 1.13054726,8.04923077 C1.96159544,6.53213456 3.52294665,5.56785472 5.24079602,5.51076923 C6.54069652,5.48769231 7.75363184,6.40615385 8.55462687,6.40615385 C9.33731343,6.40615385 10.8340299,5.30769231 12.3765174,5.46923077 C13.841194,5.51538462 15.200597,6.25846154 16.038209,7.47692308 C14.7115927,8.30638941 13.8968585,9.76150112 13.8778109,11.3353846 Z M11.3695522,3.81230769 C10.6483364,4.72402935 9.55094342,5.25007497 8.39442786,5.23846154 C8.32196187,4.09755332 8.70046292,2.97412839 9.44716418,2.11384615 C10.1998644,1.24283397 11.2510243,0.690605564 12.3902488,0.567692308 C12.481791,1.74461538 12.1156219,2.90769231 11.3695522,3.81230769 Z M29.9800995,17.6953846 L25.6318408,17.6953846 L24.5882587,20.82 L22.7482587,20.82 L26.8676617,9.27230769 L28.7763184,9.27230769 L32.8957214,20.82 L31.0191045,20.82 L29.9800995,17.6953846 L29.9800995,17.6953846 Z M26.080398,16.2553846 L29.5269652,16.2553846 L27.8334328,11.1923077 L27.7830846,11.1923077 L26.080398,16.2553846 Z M41.7844776,16.6107692 C41.7844776,19.2276923 40.4021891,20.9030769 38.3150249,20.9030769 C37.237797,20.9606396 36.2226873,20.3923728 35.7014925,19.44 L35.6602985,19.44 L35.6602985,23.6076923 L33.9530348,23.6076923 L33.9530348,12.3969231 L35.6053731,12.3969231 L35.6053731,13.8 L35.6374129,13.8 C36.1797884,12.8475009 37.1988756,12.2742411 38.2875622,12.3092308 C40.3930348,12.3092308 41.7844776,13.9984615 41.7844776,16.6107692 L41.7844776,16.6107692 Z M40.0314428,16.6107692 C40.0314428,14.9030769 39.161791,13.7861538 37.8344279,13.7861538 C36.5299502,13.7861538 35.6557214,14.9261538 35.6557214,16.6107692 C35.6557214,18.3046154 36.5299502,19.44 37.8344279,19.44 C39.161791,19.44 40.0314428,18.3323077 40.0314428,16.6107692 Z M50.9387065,16.6107692 C50.9387065,19.2276923 49.5564179,20.9030769 47.4692537,20.9030769 C46.3894185,20.9615552 45.3718211,20.3910978 44.8511443,19.4353846 L44.8145274,19.4353846 L44.8145274,23.6030769 L43.1072637,23.6030769 L43.1072637,12.3969231 L44.7550249,12.3969231 L44.7550249,13.8 L44.7870647,13.8 C45.3294402,12.8475009 46.3485274,12.2742411 47.4372139,12.3092308 C49.5426866,12.3092308 50.9387065,13.9984615 50.9387065,16.6107692 L50.9387065,16.6107692 Z M49.1856716,16.6107692 C49.1856716,14.9030769 48.3160199,13.7861538 46.9886567,13.7861538 C45.6841791,13.7861538 44.8053731,14.9261538 44.8053731,16.6107692 C44.8053731,18.3046154 45.6841791,19.44 46.9840796,19.44 C48.3114428,19.44 49.1810945,18.3323077 49.1810945,16.6107692 L49.1856716,16.6107692 Z M56.9850746,17.6030769 C57.1132338,18.7476923 58.2117413,19.4953846 59.7130348,19.4953846 C61.1502488,19.4953846 62.1846766,18.7476923 62.1846766,17.7138462 C62.1846766,16.8184615 61.5621891,16.2830769 60.0837811,15.9138462 L58.6053731,15.5538462 C56.5136318,15.0415385 55.5387065,14.0492308 55.5387065,12.4384615 C55.5387065,10.4446154 57.2551244,9.07846154 59.6901493,9.07846154 C62.0977114,9.07846154 63.7500498,10.4446154 63.8095522,12.4384615 L62.0839801,12.4384615 C61.9787065,11.2846154 61.040398,10.5923077 59.6626866,10.5923077 C58.2895522,10.5923077 57.3512438,11.2938462 57.3512438,12.3184615 C57.3512438,13.1353846 57.9462687,13.6153846 59.4200995,13.98 L60.6742289,14.2984615 C63.0177114,14.8523077 63.9880597,15.8076923 63.9880597,17.4969231 C63.9880597,19.6569231 62.2899502,21.0092308 59.5848756,21.0092308 C57.0583085,21.0092308 55.3510448,19.6892308 55.2366169,17.6030769 L56.9850746,17.6030769 L56.9850746,17.6030769 Z M67.6726368,10.4030769 L67.6726368,12.3969231 L69.2517413,12.3969231 L69.2517413,13.7676923 L67.6726368,13.7676923 L67.6726368,18.4107692 C67.6726368,19.1307692 67.9884577,19.4676923 68.679602,19.4676923 C68.8718408,19.4630769 69.0595025,19.4492308 69.2425871,19.4261538 L69.2425871,20.7876923 C68.9313433,20.8476923 68.6155224,20.8707692 68.2951244,20.8661538 C66.6153234,20.8661538 65.960796,20.2246154 65.960796,18.5953846 L65.960796,13.7676923 L64.7478607,13.7676923 L64.7478607,12.3969231 L65.9562189,12.3969231 L65.9562189,10.4076923 L67.6726368,10.4076923 L67.6726368,10.4030769 Z M70.1671642,16.6153846 C70.1671642,13.9661538 71.7096517,12.3 74.1126368,12.3 C76.520199,12.3 78.0581095,13.9615385 78.0581095,16.6153846 C78.0581095,19.2692308 76.5293532,20.9261538 74.1126368,20.9261538 C71.6959204,20.9261538 70.1671642,19.2692308 70.1671642,16.6153846 Z M76.318806,16.6153846 C76.318806,14.7969231 75.4949254,13.7261538 74.1126368,13.7261538 C72.7303483,13.7261538 71.9064677,14.8061538 71.9064677,16.6153846 C71.9064677,18.4384615 72.7303483,19.5046154 74.1126368,19.5046154 C75.4949254,19.5046154 76.318806,18.4384615 76.318806,16.6153846 Z M79.4632836,12.4015385 L81.0927363,12.4015385 L81.0927363,13.8369231 L81.1293532,13.8369231 C81.358209,12.9138462 82.1912438,12.2815385 83.1295522,12.3138462 C83.3263682,12.3138462 83.5231841,12.3369231 83.7154229,12.3784615 L83.7154229,13.9938462 C83.4663334,13.9178365 83.2065675,13.8835351 82.9464677,13.8923077 C82.4429544,13.8709646 81.9555801,14.0738307 81.6136091,14.4471006 C81.271638,14.8203705 81.1096276,15.3263241 81.1705473,15.8307692 L81.1705473,20.8153846 L79.4632836,20.8153846 L79.4632836,12.3969231 L79.4632836,12.4015385 Z M91.5834826,18.3507692 C91.3546269,19.8784615 89.8853731,20.9261538 88.0041791,20.9261538 C85.5828856,20.9261538 84.081592,19.2876923 84.081592,16.6523077 C84.081592,14.0123077 85.5920398,12.3 87.9309453,12.3 C90.2332338,12.3 91.679602,13.9015385 91.679602,16.4538462 L91.679602,17.0446154 L85.8071642,17.0446154 L85.8071642,17.1507692 C85.753251,17.7760452 85.9671291,18.3947171 86.3948383,18.8506977 C86.8225475,19.3066784 87.4232431,19.5564232 88.0453731,19.5369231 C88.8748775,19.6146069 89.655875,19.131565 89.9631841,18.3507692 L91.5834826,18.3507692 L91.5834826,18.3507692 Z M85.8163184,15.8353846 L89.9723383,15.8353846 C90.0015532,15.2738012 89.7985216,14.7251444 89.411616,14.320133 C89.0247105,13.9151217 88.4885751,13.6900209 87.9309453,13.6984615 C87.3681901,13.6947309 86.8274773,13.9188217 86.4299711,14.3205191 C86.032465,14.7222165 85.811402,15.2679335 85.8163184,15.8353846 L85.8163184,15.8353846 Z M25.9522388,0.683076923 C26.68,0.627692308 27.3894527,0.913846154 27.8929353,1.44923077 C28.3923491,1.9944507 28.6269461,2.73454086 28.5337313,3.47076923 C28.5337313,5.27076923 27.5908458,6.3 25.9522388,6.3 L23.9703483,6.3 L23.9703483,0.683076923 L25.9522388,0.683076923 Z M24.8216915,5.50615385 L25.8561194,5.50615385 C26.3762428,5.53538331 26.8813847,5.32484556 27.2292537,4.93384615 C27.5862687,4.54153846 27.7464677,4.01076923 27.6686567,3.48461538 C27.7387133,2.96206344 27.5762094,2.43500037 27.2246766,2.04461538 C26.87658,1.65717867 26.3738182,1.44862762 25.8561194,1.47692308 L24.8216915,1.47692308 L24.8216915,5.50615385 Z M29.4995025,4.17692308 C29.4271929,3.42032355 29.7828586,2.6869861 30.4195025,2.28 C31.052729,1.87650677 31.8597088,1.87650677 32.4929353,2.28 C33.1278316,2.68816491 33.4816182,3.42127528 33.4083582,4.17692308 C33.4834121,4.93415435 33.1294005,5.66951579 32.4929353,6.07846154 C31.8597088,6.48195477 31.052729,6.48195477 30.4195025,6.07846154 C29.7830373,5.66951579 29.4290257,4.93415435 29.5040796,4.17692308 L29.4995025,4.17692308 Z M32.5661692,4.17692308 C32.5661692,3.25846154 32.1633831,2.72307692 31.4585075,2.72307692 C30.7444776,2.72307692 30.3462687,3.25846154 30.3462687,4.17692308 C30.3462687,5.10461538 30.7444776,5.64 31.4585075,5.64 C32.1633831,5.64 32.5707463,5.1 32.5707463,4.17692308 L32.5661692,4.17692308 Z M38.6079602,6.3 L37.761194,6.3 L36.9006965,3.17538462 L36.8366169,3.17538462 L35.9852736,6.3 L35.1430846,6.3 L33.998806,2.05846154 L34.8318408,2.05846154 L35.5733333,5.29384615 L35.6328358,5.29384615 L36.4887562,2.06307692 L37.2714428,2.06307692 L38.1227861,5.29384615 L38.1868657,5.29384615 L38.9283582,2.06307692 L39.7476617,2.06307692 L38.6033831,6.3 L38.6079602,6.3 Z M40.7088557,2.05846154 L41.4961194,2.05846154 L41.4961194,2.73230769 L41.5556219,2.73230769 C41.7629254,2.23796693 42.2608344,1.93300462 42.7914428,1.97538462 C43.2033831,1.94769231 43.601592,2.10461538 43.880796,2.41384615 C44.1554229,2.71846154 44.2881592,3.13846154 44.2286567,3.55384615 L44.2286567,6.3 L43.4093532,6.3 L43.4093532,3.76153846 C43.4093532,3.08307692 43.120995,2.74615385 42.5168159,2.74615385 C42.2376119,2.73230769 41.9675622,2.83846154 41.7799005,3.05076923 C41.5894394,3.25726274 41.4960907,3.53628865 41.5235821,3.81692308 L41.5235821,6.3 L40.7088557,6.3 L40.7088557,2.05846154 L40.7088557,2.05846154 Z M45.5285572,0.406153846 L46.3524378,0.406153846 L46.3524378,6.3 L45.5285572,6.3 L45.5285572,0.406153846 Z M47.4875622,4.17692308 C47.4143022,3.42127528 47.7680888,2.68816491 48.4029851,2.28 C49.0362116,1.87650677 49.8431914,1.87650677 50.4764179,2.28 C51.1130618,2.6869861 51.4687275,3.42032355 51.3964179,4.17692308 C51.4714718,4.93415435 51.1174602,5.66951579 50.480995,6.07846154 C49.8466744,6.48390214 49.0373057,6.48390214 48.4029851,6.07846154 C47.7665199,5.66951579 47.4125083,4.93415435 47.4875622,4.17692308 L47.4875622,4.17692308 Z M50.5542289,4.17692308 C50.5542289,3.25846154 50.1514428,2.72307692 49.44199,2.72307692 C48.7325373,2.72307692 48.3297512,3.25846154 48.3297512,4.17692308 C48.3297512,5.10461538 48.7325373,5.64 49.44199,5.64 C50.1514428,5.64 50.5542289,5.1 50.5542289,4.17692308 L50.5542289,4.17692308 Z M52.2569154,5.1 C52.2569154,4.33846154 52.8153234,3.9 53.799403,3.83538462 L54.920796,3.77076923 L54.920796,3.40153846 C54.920796,2.95384615 54.6324378,2.7 54.0740299,2.7 C53.6163184,2.7 53.3004975,2.87538462 53.2089552,3.17538462 L52.4171144,3.17538462 C52.4995025,2.44615385 53.1723383,1.97538462 54.1106468,1.97538462 C55.1496517,1.97538462 55.7355224,2.50615385 55.7355224,3.40615385 L55.7355224,6.3 L54.9482587,6.3 L54.9482587,5.7 L54.8841791,5.7 C54.6204212,6.13441231 54.1439,6.39056415 53.639204,6.36923077 C53.2862737,6.40576664 52.9347212,6.28816268 52.6734328,6.04615385 C52.4116091,5.80225755 52.2623459,5.45942661 52.2614925,5.1 L52.2569154,5.1 Z M54.920796,4.74 L54.920796,4.38461538 L53.9138308,4.44923077 C53.3371144,4.49076923 53.080796,4.68923077 53.080796,5.06307692 C53.080796,5.44153846 53.401194,5.66307692 53.8497512,5.66307692 C54.1106468,5.69076923 54.3761194,5.60769231 54.5775124,5.43230769 C54.7789055,5.26153846 54.9024876,5.00769231 54.920796,4.74 L54.920796,4.74 Z M56.8111443,4.17692308 C56.8111443,2.83846154 57.4839801,1.98923077 58.5321393,1.98923077 C59.063715,1.965451 59.5604775,2.25554987 59.8045771,2.73230769 L59.8640796,2.73230769 L59.8640796,0.406153846 L60.6833831,0.406153846 L60.6833831,6.3 L59.9006965,6.3 L59.9006965,5.63076923 L59.8320398,5.63076923 C59.5700738,6.10296585 59.0683933,6.38796594 58.5321393,6.36923077 C57.479403,6.36923077 56.8111443,5.52 56.8111443,4.17692308 L56.8111443,4.17692308 Z M57.6579104,4.17692308 C57.6579104,5.07692308 58.0698507,5.61692308 58.7655721,5.61692308 C59.4521393,5.61692308 59.8823881,5.06769231 59.8823881,4.18153846 C59.8823881,3.3 59.4475622,2.74153846 58.7655721,2.74153846 C58.079005,2.74153846 57.6579104,3.28615385 57.6579104,4.17692308 Z M64.0658706,4.17692308 C63.9935611,3.42032355 64.3492267,2.6869861 64.9858706,2.28 C65.6190972,1.87650677 66.4260769,1.87650677 67.0593035,2.28 C67.6941998,2.68816491 68.0479864,3.42127528 67.9747264,4.17692308 C68.0497802,4.93415435 67.6957686,5.66951579 67.0593035,6.07846154 C66.4260769,6.48195477 65.6190972,6.48195477 64.9858706,6.07846154 C64.3494055,5.66951579 63.9953939,4.93415435 64.0704478,4.17692308 L64.0658706,4.17692308 Z M67.1325373,4.17692308 C67.1325373,3.25846154 66.7343284,2.72307692 66.0248756,2.72307692 C65.3108458,2.72307692 64.9126368,3.25846154 64.9126368,4.17692308 C64.9126368,5.10461538 65.3108458,5.64 66.0248756,5.64 C66.7343284,5.64 67.1371144,5.1 67.1371144,4.17692308 L67.1325373,4.17692308 Z M69.0732338,2.05846154 L69.8604975,2.05846154 L69.8604975,2.73230769 L69.9245771,2.73230769 C70.1318806,2.23796693 70.6297896,1.93300462 71.160398,1.97538462 C71.5723383,1.94769231 71.9705473,2.10461538 72.2497512,2.41384615 C72.5243781,2.71846154 72.6571144,3.13846154 72.5976119,3.55384615 L72.5976119,6.3 L71.7737313,6.3 L71.7737313,3.76153846 C71.7737313,3.08307692 71.4899502,2.74615385 70.881194,2.74615385 C70.6065672,2.73230769 70.3365174,2.83846154 70.1488557,3.05076923 C69.9583946,3.25726274 69.8650459,3.53628865 69.8925373,3.81692308 L69.8925373,6.3 L69.0732338,6.3 L69.0732338,2.05846154 L69.0732338,2.05846154 Z M77.2204975,1.00153846 L77.2204975,2.07692308 L78.1176119,2.07692308 L78.1176119,2.78307692 L77.2204975,2.78307692 L77.2204975,4.96615385 C77.2204975,5.40923077 77.399005,5.60307692 77.8063682,5.60307692 C77.9070647,5.60307692 78.0123383,5.59384615 78.1176119,5.58461538 L78.1176119,6.27692308 C77.9711443,6.30923077 77.8200995,6.32307692 77.6736318,6.32307692 C76.758209,6.32307692 76.401194,6 76.401194,5.17846154 L76.401194,2.78307692 L75.7420896,2.78307692 L75.7420896,2.07692308 L76.401194,2.07692308 L76.401194,1.00153846 L77.2204975,1.00153846 Z M79.2344279,0.401538462 L80.0445771,0.401538462 L80.0445771,2.74153846 L80.1086567,2.74153846 C80.3266684,2.24295693 80.8332013,1.93760645 81.3719403,1.98 C81.7838806,1.95692308 82.1729353,2.11846154 82.4521393,2.42769231 C82.7267662,2.73230769 82.8549254,3.14769231 82.8,3.56307692 L82.8,6.3 L81.9806965,6.3 L81.9806965,3.77076923 C81.9806965,3.09230769 81.6740299,2.74615385 81.0973134,2.74615385 C80.8107674,2.72222606 80.5286462,2.8289061 80.3283582,3.03692308 C80.1277805,3.24559841 80.0274871,3.53213898 80.0537313,3.82153846 L80.0537313,6.3 L79.2298507,6.3 L79.2298507,0.406153846 L79.2344279,0.401538462 Z M87.5693532,5.15538462 C87.3467323,5.94998929 86.5896375,6.46802767 85.7751244,6.38307692 C85.2204133,6.39515015 84.6889693,6.15848057 84.3241791,5.73692308 C83.9549293,5.31357332 83.7862382,4.74937521 83.8618905,4.19076923 C83.7878896,3.63165909 83.9544553,3.06731865 84.319602,2.64 C84.6832487,2.2147011 85.213665,1.9717403 85.7705473,1.9753442 C86.9239801,1.9753442 87.6197015,2.78307692 87.6197015,4.11692308 L87.6197015,4.40769231 L84.6903483,4.40769231 L84.6903483,4.45384615 C84.6674627,4.76769231 84.7727363,5.08153846 84.9832836,5.31230769 C85.1938308,5.54307692 85.4867662,5.67230769 85.79801,5.66769231 C86.1962189,5.71384615 86.5852736,5.51538462 86.7820896,5.15538462 L87.5693532,5.15538462 L87.5693532,5.15538462 Z M84.6949254,3.78923077 L86.7866667,3.78923077 C86.8081428,3.50045074 86.7085201,3.21582643 86.5120398,3.00461538 C86.3187283,2.79806602 86.0475411,2.68398677 85.7659701,2.69076923 C85.4787622,2.68732988 85.2026315,2.80237375 85.001592,3.00923077 C84.8006094,3.21778823 84.690259,3.49846212 84.6949254,3.78923077 L84.6949254,3.78923077 Z" id="Shape"></path>
                </g>
            </g>
        </g>
    </g>
</svg>