<?xml version="1.0" encoding="UTF-8"?>
<svg width="41px" height="59px" viewBox="0 0 41 59" version="1.1" xmlns="http://www.w3.org/2000/svg" xmlns:xlink="http://www.w3.org/1999/xlink">
    <!-- Generator: Sketch 54.1 (76490) - https://sketchapp.com -->
    <title>Group 27</title>
    <desc>Created with Sketch.</desc>
    <defs>
        <path d="M18.1697956,50.862069 L22.2627542,50.862069 C34.7542514,35.7328699 41,25.0629034 41,18.8521697 C41,8.44040388 31.8218374,1.77635684e-15 20.5,1.77635684e-15 C9.17816263,1.77635684e-15 0,8.44040388 0,18.8521697 C0,25.7933469 6.05659853,36.4633134 18.1697956,50.862069 Z" id="path-1"></path>
    </defs>
    <g id="Website" stroke="none" stroke-width="1" fill="none" fill-rule="evenodd">
        <g id="MainSite" transform="translate(-965.000000, -304.000000)">
            <g id="Group-27" transform="translate(965.000000, 304.000000)">
                <g id="Path-105">
                    <mask id="mask-2" fill="white">
                        <use xlink:href="#path-1"></use>
                    </mask>
                    <use id="Mask" fill="#475376" xlink:href="#path-1"></use>
                    <path d="M14.9323459,-3.5994695 C23.4963523,2.51376476 27.9011805,10.3837642 28.1468305,20.0105287 C28.3924805,29.6372932 25.1366405,40.7697241 18.3793103,53.4078215 L40.5789413,38.2349814 L46.8212348,-3.5994695 L14.9323459,-3.5994695 Z" fill-opacity="0.276906687" fill="#FFFFFF" mask="url(#mask-2)"></path>
                </g>
                <path d="M21.9137931,50.0170169 L21.9137931,53.4078215" id="Path-74" stroke="#777E91" stroke-width="1.35"></path>
                <path d="M18.3793103,50.0170169 L18.3793103,53.4078215" id="Path-74" stroke="#777E91" stroke-width="1.35"></path>
                <rect id="Rectangle" fill="#4F5669" x="16.2586207" y="53.4078215" width="7.77586207" height="5.42528736" rx="1.35"></rect>
            </g>
        </g>
    </g>
</svg>