<?xml version="1.0" encoding="UTF-8"?>
<svg width="51px" height="51px" viewBox="0 0 51 51" version="1.1" xmlns="http://www.w3.org/2000/svg" xmlns:xlink="http://www.w3.org/1999/xlink">
    <!-- Generator: Sketch 58 (84663) - https://sketch.com -->
    <title>Twitter Copy 2</title>
    <desc>Created with Sketch.</desc>
    <defs>
        <path d="M15.3445743,0.834181199 C18.3825781,0.489207941 21.6107476,0.316721311 25.0290825,0.316721311 C28.5758223,0.316721311 31.9378828,0.502409743 35.1152641,0.873786605 L35.1152643,0.873784973 C42.8561289,1.7785483 48.9583641,7.88821603 49.8537041,15.6301763 C50.2179014,18.7793718 50.4,22.1140116 50.4,25.6340957 C50.4,29.1643892 50.2168435,32.5105254 49.8505306,35.6725043 L49.8505312,35.6725044 C48.9550629,43.4021035 42.8688433,49.5052256 35.1417573,50.4221272 C31.9393277,50.8021298 28.5684361,50.9921311 25.0290825,50.9921311 C21.615828,50.9921311 18.3783169,50.8154273 15.3165493,50.4620196 L15.3165496,50.4620176 C7.57166472,49.5680562 1.45946968,43.4632947 0.556083899,35.7195035 C0.1853613,32.5416824 0,29.1798798 0,25.6340957 C0,22.0986365 0.184283365,18.7484677 0.552850094,15.5835893 L0.552851831,15.5835895 C1.45616768,7.8268263 7.58525513,1.71527211 15.3445743,0.834181199 Z" id="path-1"></path>
    </defs>
    <g id="Symbols" stroke="none" stroke-width="1" fill="none" fill-rule="evenodd">
        <g id="Social" transform="translate(-131.000000, 0.000000)">
            <g id="Group">
                <g id="Twitter-Copy-2" transform="translate(131.040000, 0.000000)">
                    <mask id="mask-2" fill="white">
                        <use xlink:href="#path-1"></use>
                    </mask>
                    <use id="Bg" fill="#0075B2" style="mix-blend-mode: overlay;" xlink:href="#path-1"></use>
                    <g id="Group-2" mask="url(#mask-2)" fill="#FEFEFE">
                        <g transform="translate(12.200000, 12.500000)">
                            <path d="M3.098,0 C4.807,0 6.193,1.388 6.193,3.095 C6.193,4.804 4.807,6.191 3.098,6.191 C1.383,6.191 -8.8817842e-15,4.804 -8.8817842e-15,3.095 C-8.8817842e-15,1.388 1.383,0 3.098,0 L3.098,0 Z M0.424,25.72 L5.769,25.72 L5.769,8.541 L0.424,8.541 L0.424,25.72 Z" id="Fill-3"></path>
                            <path d="M9.1195,8.5406 L14.2375,8.5406 L14.2375,10.8876 L14.3105,10.8876 C15.0225,9.5366 16.7655,8.1126 19.3625,8.1126 C24.7655,8.1126 25.7645,11.6696 25.7645,16.2966 L25.7645,25.7196 L20.4305,25.7196 L20.4305,17.3666 C20.4305,15.3736 20.3905,12.8106 17.6545,12.8106 C14.8765,12.8106 14.4525,14.9806 14.4525,17.2216 L14.4525,25.7196 L9.1195,25.7196 L9.1195,8.5406 Z" id="Fill-5"></path>
                        </g>
                    </g>
                </g>
            </g>
        </g>
    </g>
</svg>