<?xml version="1.0" encoding="UTF-8"?>
<svg width="22px" height="21px" viewBox="0 0 22 21" version="1.1" xmlns="http://www.w3.org/2000/svg" xmlns:xlink="http://www.w3.org/1999/xlink">
    <!-- Generator: Sketch 58 (84663) - https://sketch.com -->
    <title>noun_Home_2830530</title>
    <desc>Created with Sketch.</desc>
    <g id="Welcome" stroke="none" stroke-width="1" fill="none" fill-rule="evenodd">
        <g id="Desktop" transform="translate(-55.000000, -39.000000)" fill="#000000" fill-rule="nonzero">
            <g id="Group-6" transform="translate(46.000000, 30.000000)">
                <g id="noun_Home_2830530" transform="translate(9.600000, 8.800000)">
                    <path d="M19.864,6.136 L11.544,0.624 C10.816,0.208 9.984,0.208 9.256,0.624 L0.936,6.136 C0.312,6.448 0,7.176 0,7.8 L0,18.72 C0,19.864 0.936,20.8 2.08,20.8 L18.72,20.8 C19.864,20.8 20.8,19.864 20.8,18.72 L20.8,7.8 C20.8,7.176 20.488,6.448 19.864,6.136 Z M8.32,18.72 L8.32,14.56 C8.32,13.416 9.256,12.48 10.4,12.48 C11.544,12.48 12.48,13.416 12.48,14.56 L12.48,18.72 L8.32,18.72 Z M14.56,18.72 L14.56,14.56 C14.56,12.272 12.688,10.4 10.4,10.4 C8.112,10.4 6.24,12.272 6.24,14.56 L6.24,18.72 L2.08,18.72 L2.08,7.8 L10.4,2.288 L18.72,7.8 L18.72,18.72 L14.56,18.72 Z" id="Shape"></path>
                </g>
            </g>
        </g>
    </g>
</svg>