<?xml version="1.0" encoding="UTF-8"?>
<svg width="51px" height="51px" viewBox="0 0 51 51" version="1.1" xmlns="http://www.w3.org/2000/svg" xmlns:xlink="http://www.w3.org/1999/xlink">
    <!-- Generator: Sketch 58 (84663) - https://sketch.com -->
    <title>Twitter</title>
    <desc>Created with Sketch.</desc>
    <defs>
        <path d="M15.3445743,0.834181199 C18.3825781,0.489207941 21.6107476,0.316721311 25.0290825,0.316721311 C28.5758223,0.316721311 31.9378828,0.502409743 35.1152641,0.873786605 L35.1152643,0.873784973 C42.8561289,1.7785483 48.9583641,7.88821603 49.8537041,15.6301763 C50.2179014,18.7793718 50.4,22.1140116 50.4,25.6340957 C50.4,29.1643892 50.2168435,32.5105254 49.8505306,35.6725043 L49.8505312,35.6725044 C48.9550629,43.4021035 42.8688433,49.5052256 35.1417573,50.4221272 C31.9393277,50.8021298 28.5684361,50.9921311 25.0290825,50.9921311 C21.615828,50.9921311 18.3783169,50.8154273 15.3165493,50.4620196 L15.3165496,50.4620176 C7.57166472,49.5680562 1.45946968,43.4632947 0.556083899,35.7195035 C0.1853613,32.5416824 0,29.1798798 0,25.6340957 C0,22.0986365 0.184283365,18.7484677 0.552850094,15.5835893 L0.552851831,15.5835895 C1.45616768,7.8268263 7.58525513,1.71527211 15.3445743,0.834181199 Z" id="path-1"></path>
        <path d="M4.41969966,45.5698623 C1.92896149,45.2624468 0,43.1277167 0,40.5403279 L0,5.06754098 C0,2.26899148 2.25666,0 5.04,0 L40.32,0 C43.10334,0 45.36,2.26899148 45.36,5.06754098 L45.36,40.5403279 C45.36,43.1277167 43.4310385,45.2624468 40.9403003,45.5698623 L4.41969966,45.5698623 L4.41969966,45.5698623 Z" id="path-3"></path>
    </defs>
    <g id="Symbols" stroke="none" stroke-width="1" fill="none" fill-rule="evenodd">
        <g id="Social">
            <g id="Group">
                <g id="Twitter">
                    <mask id="mask-2" fill="white">
                        <use xlink:href="#path-1"></use>
                    </mask>
                    <use id="Bg" fill="#1B76C9" style="mix-blend-mode: overlay;" xlink:href="#path-1"></use>
                    <g mask="url(#mask-2)">
                        <g transform="translate(2.520000, 2.730492)">
                            <g id="Group-3" stroke-width="1" fill-rule="evenodd" transform="translate(0.000000, 0.120000)">
                                <mask id="mask-4" fill="white">
                                    <use xlink:href="#path-3"></use>
                                </mask>
                                <use id="Clip-2" fill="#1B76C9" xlink:href="#path-3"></use>
                                <polygon id="Fill-1" fill="#1B76C9" mask="url(#mask-4)" points="0 45.5698623 45.36 45.5698623 45.36 -0.0380065574 0 -0.0380065574"></polygon>
                            </g>
                            <text id="f" font-family="TruenoSBd, Trueno" font-size="36.4" font-weight="500">
                                <tspan x="15.96" y="36.5095082" fill="#FFFFFF">f</tspan>
                            </text>
                        </g>
                    </g>
                </g>
            </g>
        </g>
    </g>
</svg>