<?xml version="1.0" encoding="UTF-8"?>
<svg width="51px" height="51px" viewBox="0 0 51 51" version="1.1" xmlns="http://www.w3.org/2000/svg" xmlns:xlink="http://www.w3.org/1999/xlink">
    <!-- Generator: Sketch 58 (84663) - https://sketch.com -->
    <title>Twitter</title>
    <desc>Created with Sketch.</desc>
    <defs>
        <path d="M15.3445743,0.834181199 C18.3825781,0.489207941 21.6107476,0.316721311 25.0290825,0.316721311 C28.5758223,0.316721311 31.9378828,0.502409743 35.1152641,0.873786605 L35.1152643,0.873784973 C42.8561289,1.7785483 48.9583641,7.88821603 49.8537041,15.6301763 C50.2179014,18.7793718 50.4,22.1140116 50.4,25.6340957 C50.4,29.1643892 50.2168435,32.5105254 49.8505306,35.6725043 L49.8505312,35.6725044 C48.9550629,43.4021035 42.8688433,49.5052256 35.1417573,50.4221272 C31.9393277,50.8021298 28.5684361,50.9921311 25.0290825,50.9921311 C21.615828,50.9921311 18.3783169,50.8154273 15.3165493,50.4620196 L15.3165496,50.4620176 C7.57166472,49.5680562 1.45946968,43.4632947 0.556083899,35.7195035 C0.1853613,32.5416824 0,29.1798798 0,25.6340957 C0,22.0986365 0.184283365,18.7484677 0.552850094,15.5835893 L0.552851831,15.5835895 C1.45616768,7.8268263 7.58525513,1.71527211 15.3445743,0.834181199 Z" id="path-1"></path>
        <path d="M4.41969966,45.5698623 C1.92896149,45.2624468 0,43.1277167 0,40.5403279 L0,5.06754098 C0,2.26899148 2.25666,0 5.04,0 L40.32,0 C43.10334,0 45.36,2.26899148 45.36,5.06754098 L45.36,40.5403279 C45.36,43.1277167 43.4310385,45.2624468 40.9403003,45.5698623 L4.41969966,45.5698623 L4.41969966,45.5698623 Z" id="path-3"></path>
        <path d="M27.14481,6.15389508 C27.53604,14.9277089 21.0294,24.7099633 9.50985,24.7099633 C6.00642,24.7099633 2.74554,23.6768184 0,21.9069797 C3.29112,22.2971803 6.57657,21.379322 9.18477,19.3238007 C6.4701,19.2737587 4.17879,17.4703475 3.39003,14.9916866 C4.36149,15.1785521 5.31783,15.1240761 6.19101,14.8859016 C3.2067,14.2822308 1.14786,11.5799646 1.21464,8.69019934 C2.05128,9.15704656 3.00825,9.43829508 4.0257,9.46933377 C1.26252,7.61334689 0.48006,3.9457141 2.10546,1.14146361 C5.16474,4.9161482 9.73602,7.39924328 14.89257,7.66022164 C13.98852,3.7569482 16.93251,0 20.93616,0 C22.72095,0 24.33375,0.756963934 25.4646,1.96937311 C26.87769,1.69002492 28.20573,1.17060197 29.40399,0.455445246 C28.94094,1.91236328 27.95751,3.13554098 26.67672,3.90644066 C27.93168,3.75631475 29.12679,3.42122361 30.24,2.92460459 C29.4084,4.17628721 28.3563,5.27467672 27.14481,6.15389508 Z" id="path-5"></path>
    </defs>
    <g id="Symbols" stroke="none" stroke-width="1" fill="none" fill-rule="evenodd">
        <g id="Social" transform="translate(-65.000000, 0.000000)">
            <g id="Group">
                <g id="Twitter" transform="translate(65.520000, 0.000000)">
                    <mask id="mask-2" fill="white">
                        <use xlink:href="#path-1"></use>
                    </mask>
                    <use id="Bg" fill="#49CAF1" style="mix-blend-mode: overlay;" xlink:href="#path-1"></use>
                    <g mask="url(#mask-2)">
                        <g transform="translate(2.520000, 2.850492)">
                            <g id="Group-3">
                                <mask id="mask-4" fill="white">
                                    <use xlink:href="#path-3"></use>
                                </mask>
                                <g id="Clip-2"></g>
                                <polygon id="Fill-1" fill="#49CAF1" mask="url(#mask-4)" points="0 45.5698623 45.36 45.5698623 45.36 -0.0380065574 0 -0.0380065574"></polygon>
                            </g>
                            <g id="Group-6" transform="translate(7.560000, 10.135082)">
                                <mask id="mask-6" fill="white">
                                    <use xlink:href="#path-5"></use>
                                </mask>
                                <g id="Clip-5"></g>
                                <polygon id="Fill-4" fill="#FFFFFF" mask="url(#mask-6)" points="0 24.7169311 30.24 24.7169311 30.24 -0.0633442623 0 -0.0633442623"></polygon>
                            </g>
                        </g>
                    </g>
                </g>
            </g>
        </g>
    </g>
</svg>