<?xml version="1.0" encoding="UTF-8"?>
<svg width="51px" height="51px" viewBox="0 0 51 51" version="1.1" xmlns="http://www.w3.org/2000/svg" xmlns:xlink="http://www.w3.org/1999/xlink">
    <!-- Generator: Sketch 58 (84663) - https://sketch.com -->
    <title>Twitter Copy</title>
    <desc>Created with Sketch.</desc>
    <defs>
        <path d="M15.3445743,0.834181199 C18.3825781,0.489207941 21.6107476,0.316721311 25.0290825,0.316721311 C28.5758223,0.316721311 31.9378828,0.502409743 35.1152641,0.873786605 L35.1152643,0.873784973 C42.8561289,1.7785483 48.9583641,7.88821603 49.8537041,15.6301763 C50.2179014,18.7793718 50.4,22.1140116 50.4,25.6340957 C50.4,29.1643892 50.2168435,32.5105254 49.8505306,35.6725043 L49.8505312,35.6725044 C48.9550629,43.4021035 42.8688433,49.5052256 35.1417573,50.4221272 C31.9393277,50.8021298 28.5684361,50.9921311 25.0290825,50.9921311 C21.615828,50.9921311 18.3783169,50.8154273 15.3165493,50.4620196 L15.3165496,50.4620176 C7.57166472,49.5680562 1.45946968,43.4632947 0.556083899,35.7195035 C0.1853613,32.5416824 0,29.1798798 0,25.6340957 C0,22.0986365 0.184283365,18.7484677 0.552850094,15.5835893 L0.552851831,15.5835895 C1.45616768,7.8268263 7.58525513,1.71527211 15.3445743,0.834181199 Z" id="path-1"></path>
    </defs>
    <g id="Symbols" stroke="none" stroke-width="1" fill="none" fill-rule="evenodd">
        <g id="Social" transform="translate(-196.000000, 0.000000)">
            <g id="Group">
                <g id="Twitter-Copy" transform="translate(196.560000, 0.000000)">
                    <mask id="mask-2" fill="white">
                        <use xlink:href="#path-1"></use>
                    </mask>
                    <use id="Bg" fill="#FFFFFF" style="mix-blend-mode: overlay;" xlink:href="#path-1"></use>
                    <path d="M31.62204,22.82568 C32.6802,19.95036 33.50604,17.57664 34.0986,15.70452 C34.69092,13.8324 34.9872,12.68304 34.9872,12.25656 C34.9872,11.79828 34.88844,11.44296 34.69092,11.19012 C34.49316,10.93764 34.22052,10.81092 33.87348,10.81092 C33.43092,10.81092 32.98068,11.17824 32.52264,11.91288 C32.06424,12.64752 31.55892,13.8288 31.00596,15.45564 L28.6362,22.30428 L31.62204,22.82568 Z M28.47024,29.20032 C27.79092,29.16864 27.14688,29.09772 26.53896,28.98708 C25.93068,28.8768 25.35,28.71852 24.79716,28.51308 C25.04952,29.019 25.27476,29.5242 25.47264,30.02976 C25.66992,30.53568 25.83168,31.0332 25.9584,31.52268 C26.3376,31.04868 26.73648,30.61848 27.15504,30.23124 C27.57348,29.84412 28.01184,29.50056 28.47024,29.20032 L28.47024,29.20032 Z M25.79244,22.02 L23.23308,14.6262 C22.5696,12.74616 22.05612,11.5182 21.69276,10.94124 C21.32916,10.36464 20.93448,10.07628 20.50788,10.07628 C20.1762,10.07628 19.90716,10.20312 19.70208,10.45548 C19.49676,10.7082 19.39416,11.04792 19.39416,11.47452 C19.39416,12.20124 19.67028,13.46508 20.2236,15.26604 C20.77656,17.06712 21.60588,19.42896 22.7118,22.35168 C22.8066,22.17792 22.94052,22.05552 23.11464,21.98436 C23.2884,21.91332 23.5254,21.8778 23.82552,21.8778 C23.92032,21.8778 24.10992,21.88596 24.39432,21.90144 C24.67872,21.91728 25.14444,21.95712 25.79244,22.02 L25.79244,22.02 Z M23.47008,33.46584 C23.73864,33.46584 23.9832,33.3438 24.20472,33.09852 C24.42588,32.8536 24.53652,32.589 24.53652,32.30472 C24.53652,32.00484 24.31932,31.30572 23.8848,30.20748 C23.45004,29.10948 22.9092,28.03116 22.26156,26.97276 C21.78756,26.1828 21.3216,25.5864 20.86332,25.18356 C20.4048,24.78072 19.97076,24.57924 19.56,24.57924 C19.2282,24.57924 18.86088,24.789 18.45804,25.20732 C18.0552,25.62588 17.85372,26.01696 17.85372,26.38032 C17.85372,26.75952 18.05124,27.3282 18.44616,28.0866 C18.84084,28.84488 19.3704,29.65056 20.034,30.50364 C20.72916,31.43616 21.38472,32.16252 22.00092,32.6838 C22.617,33.2052 23.10636,33.46584 23.47008,33.46584 L23.47008,33.46584 Z M16.3608,32.89716 C16.58196,33.16608 16.89012,33.56076 17.28504,34.08204 C18.32772,35.51964 19.29108,36.23844 20.1762,36.23844 C20.47596,36.23844 20.74488,36.14364 20.98188,35.95404 C21.21888,35.76456 21.33732,35.56716 21.33732,35.36172 C21.33732,35.12472 21.17928,34.73004 20.86332,34.17684 C20.547,33.62388 20.11296,33.00012 19.56,32.30472 C18.92808,31.49904 18.40236,30.91044 17.98416,30.53916 C17.56548,30.16824 17.22948,29.98236 16.977,29.98236 C16.42368,29.98236 15.91416,30.27852 15.44844,30.87096 C14.98236,31.4634 14.74944,32.16252 14.74944,32.9682 C14.74944,33.61632 14.91132,34.33908 15.2352,35.1366 C15.55872,35.93436 16.029,36.7362 16.6452,37.54188 C17.57724,38.79 18.73428,39.7494 20.11692,40.4208 C21.4992,41.09304 23.02776,41.42796 24.70236,41.42796 C27.78312,41.42796 30.36216,40.2786 32.4396,37.98024 C34.5168,35.68164 35.55588,32.80248 35.55588,29.34252 C35.55588,28.28436 35.47656,27.44316 35.319,26.81868 C35.16084,26.19468 34.9002,25.74048 34.53684,25.45608 C33.88884,24.9192 32.62932,24.43716 30.75708,24.01056 C28.88496,23.58396 26.92992,23.37072 24.89196,23.37072 C24.32328,23.37072 23.92032,23.46552 23.68344,23.65512 C23.44644,23.84472 23.32788,24.16848 23.32788,24.62664 C23.32788,25.70124 23.92824,26.47908 25.12896,26.96088 C26.32932,27.44316 28.27248,27.68364 30.95856,27.68364 L31.9302,27.68364 C32.15136,27.68364 32.3292,27.76668 32.46336,27.93252 C32.59728,28.09836 32.6886,28.34724 32.73588,28.67904 C32.46696,28.93176 31.91436,29.22048 31.077,29.544 C30.23952,29.86788 29.59956,30.1878 29.1576,30.50364 C28.2096,31.19904 27.44736,32.02428 26.87064,32.98008 C26.2938,33.93624 26.00568,34.84032 26.00568,35.6934 C26.00568,36.2148 26.12784,36.84288 26.37312,37.5774 C26.61792,38.31216 26.74032,38.76624 26.74032,38.94 L26.74032,39.10596 L26.69304,39.3192 C25.99752,39.2718 25.44888,38.86536 25.04604,38.0988 C24.64308,37.3326 24.44172,36.3096 24.44172,35.02992 L24.44172,34.81668 C24.315,34.92732 24.19284,35.00628 24.0744,35.05356 C23.95596,35.10108 23.82552,35.12472 23.68344,35.12472 C23.54124,35.12472 23.40696,35.11296 23.28048,35.08908 C23.15376,35.06556 23.01168,35.02992 22.854,34.98252 C22.9014,35.15664 22.93692,35.3262 22.96056,35.49204 C22.98432,35.658 22.99608,35.7882 22.99608,35.88312 C22.99608,36.46764 22.767,36.96948 22.30896,37.38792 C21.85044,37.8066 21.3054,38.01588 20.67372,38.01588 C19.67856,38.01588 18.66744,37.53 17.64048,36.55836 C16.61328,35.58684 16.10016,34.63536 16.10016,33.70296 C16.10016,33.52908 16.11984,33.37512 16.15944,33.24072 C16.19856,33.1068 16.266,32.99196 16.3608,32.89716 L16.3608,32.89716 Z M33.32832,23.22852 C34.75008,23.49744 35.7534,24.09744 36.33792,25.02948 C36.92208,25.962 37.21464,27.43116 37.21464,29.43732 C37.21464,33.41844 36.018,36.67692 33.62448,39.21264 C31.23108,41.748 28.17012,43.01568 24.44172,43.01568 C22.97244,43.01568 21.54672,42.75108 20.16432,42.22188 C18.78156,41.69268 17.59308,40.95396 16.5978,40.0062 C15.46032,38.96376 14.60712,37.8618 14.03844,36.70068 C13.46964,35.53944 13.18536,34.35096 13.18536,33.13404 C13.18536,31.7754 13.47756,30.72516 14.06208,29.98236 C14.64636,29.2398 15.57048,28.7346 16.83468,28.46568 C16.5978,27.91272 16.42368,27.44664 16.3134,27.06756 C16.20276,26.68836 16.14756,26.39604 16.14756,26.19072 C16.14756,25.47984 16.52268,24.75336 17.27316,24.01056 C18.02328,23.268 18.73056,22.89672 19.39416,22.89672 C19.67856,22.89672 19.97832,22.94808 20.29452,23.0508 C20.6106,23.15376 20.97372,23.32332 21.38472,23.56032 C20.16792,20.1162 19.28352,17.4582 18.73056,15.58596 C18.17724,13.71396 17.90124,12.4224 17.90124,11.71152 C17.90124,10.73196 18.1536,9.95424 18.65952,9.37728 C19.16508,8.80056 19.8522,8.51232 20.72112,8.51232 C22.20588,8.51232 24.08628,11.82996 26.36112,18.46524 C26.7558,19.60284 27.0564,20.47956 27.26172,21.09576 C27.43548,20.60628 27.68004,19.91088 27.99636,19.0104 C30.27132,12.43812 32.22996,9.15216 33.87348,9.15216 C34.67916,9.15216 35.3226,9.42468 35.80464,9.96972 C36.28656,10.51476 36.52752,11.24568 36.52752,12.16176 C36.52752,12.85716 36.26292,14.12856 35.7336,15.97704 C35.20416,17.82552 34.40256,20.24256 33.32832,23.22852 L33.32832,23.22852 Z" id="Fill-1" fill="#1D1D1B" mask="url(#mask-2)"></path>
                </g>
            </g>
        </g>
    </g>
</svg>