<svg width="18" height="18" viewBox="0 0 18 18" fill="none" xmlns="http://www.w3.org/2000/svg">
<path fill-rule="evenodd" clip-rule="evenodd" d="M16.9485 14.9827L13.7205 11.7547C15.7614 8.70149 15.1534 4.59802 12.3147 2.26791C9.47599 -0.0621923 5.3327 0.141153 2.73583 2.73803C0.138956 5.3349 -0.0643895 9.47819 2.26572 12.3169C4.59582 15.1556 8.69929 15.7636 11.7525 13.7227L14.9805 16.9507C15.5267 17.4874 16.4023 17.4874 16.9485 16.9507C17.4917 16.4072 17.4917 15.5262 16.9485 14.9827ZM7.7805 2.74269C9.82492 2.73784 11.6707 3.96563 12.4565 5.85305C13.2422 7.74046 12.813 9.91538 11.369 11.3627C9.92513 12.8101 7.75124 13.2445 5.86196 12.4633C3.97268 11.682 2.7405 9.83913 2.7405 7.79469C2.74049 5.00923 4.99504 2.74931 7.7805 2.74269Z" fill="#9B9B9B"/>
</svg>
