<svg width="40" height="40" viewBox="0 0 40 40" fill="none" xmlns="http://www.w3.org/2000/svg">
<circle cx="20" cy="20" r="20" fill="#F7F7F7"/>
<g filter="url(#filter0_d)">
<path fill-rule="evenodd" clip-rule="evenodd" d="M25.7034 19.96C25.7042 20.3425 25.5402 20.7069 25.2534 20.96L18.7834 26.65C18.3388 27.0421 17.6605 26.9996 17.2684 26.555C16.8763 26.1104 16.9188 25.4321 17.3634 25.04L23.0234 20.07C23.0571 20.0434 23.0768 20.0029 23.0768 19.96C23.0768 19.9171 23.0571 19.8765 23.0234 19.85L17.3634 14.88C16.9188 14.4878 16.8763 13.8096 17.2684 13.365C17.6605 12.9204 18.3388 12.8778 18.7834 13.27L25.2534 18.96C25.5392 19.2139 25.7029 19.5777 25.7034 19.96Z" fill="#303030" stroke="#303030" stroke-width="2.4"/>
</g>
<defs>
<filter id="filter0_d" x="6" y="7" width="30" height="30" filterUnits="userSpaceOnUse" color-interpolation-filters="sRGB">
<feFlood flood-opacity="0" result="BackgroundImageFix"/>
<feColorMatrix in="SourceAlpha" type="matrix" values="0 0 0 0 0 0 0 0 0 0 0 0 0 0 0 0 0 0 127 0"/>
<feOffset dy="2"/>
<feGaussianBlur stdDeviation="1.5"/>
<feColorMatrix type="matrix" values="0 0 0 0 0 0 0 0 0 0 0 0 0 0 0 0 0 0 0.16 0"/>
<feBlend mode="normal" in2="BackgroundImageFix" result="effect1_dropShadow"/>
<feBlend mode="normal" in="SourceGraphic" in2="effect1_dropShadow" result="shape"/>
</filter>
</defs>
</svg>
