<svg width="32" height="32" viewBox="0 0 32 32" fill="none" xmlns="http://www.w3.org/2000/svg">
<path fill-rule="evenodd" clip-rule="evenodd" d="M16.0003 26.6666C6.32686 26.6666 2.66699 23.82 2.66699 15.9999C2.66699 8.30592 6.20976 5.42634 15.5369 5.33545H16.4637C25.7909 5.42634 29.3337 8.30592 29.3337 15.9999C29.3337 23.82 25.6738 26.6666 16.0003 26.6666ZM15.1602 23.9933L16.0003 23.9999L16.8405 23.9933C24.4855 23.8692 26.667 21.9667 26.667 15.9999C26.667 14.1235 26.4513 12.6491 25.9178 11.5055C23.2269 14.3371 20.0847 16.7064 16.617 18.5154C16.2306 18.7169 15.7701 18.7169 15.3837 18.5154C11.916 16.7067 8.77363 14.3377 6.08249 11.5064C5.57956 12.5849 5.35918 13.9576 5.33576 15.6841V16.3157C5.41331 22.0341 7.6517 23.8714 15.1602 23.9933ZM7.83536 9.47831C10.2044 12.011 12.9603 14.1519 16.0003 15.821L16.6456 15.457C19.4308 13.8447 21.9645 11.8302 24.1645 9.4778C22.6384 8.48255 20.2983 8.06262 16.8405 8.00648L16.0003 7.99989L15.1602 8.00648C11.7018 8.06263 9.36147 8.4827 7.83536 9.47831Z" fill="white"/>
</svg>
