<svg width="285" height="38" viewBox="0 0 285 38" fill="none" xmlns="http://www.w3.org/2000/svg">
<path d="M251.885 27.3945H249.143V35H248.023V27.3945H245.287V26.4688H251.885V27.3945ZM255.265 35.1172C254.406 35.1172 253.707 34.8359 253.168 34.2734C252.629 33.707 252.359 32.9512 252.359 32.0059V31.8066C252.359 31.1777 252.478 30.6172 252.717 30.125C252.959 29.6289 253.295 29.2422 253.724 28.9648C254.158 28.6836 254.627 28.543 255.131 28.543C255.955 28.543 256.595 28.8145 257.052 29.3574C257.51 29.9004 257.738 30.6777 257.738 31.6895V32.1406H253.443C253.459 32.7656 253.64 33.2715 253.988 33.6582C254.34 34.041 254.785 34.2324 255.324 34.2324C255.707 34.2324 256.031 34.1543 256.297 33.998C256.562 33.8418 256.795 33.6348 256.994 33.377L257.656 33.8926C257.125 34.709 256.328 35.1172 255.265 35.1172ZM255.131 29.4336C254.693 29.4336 254.326 29.5938 254.029 29.9141C253.732 30.2305 253.549 30.6758 253.478 31.25H256.654V31.168C256.623 30.6172 256.474 30.1914 256.209 29.8906C255.943 29.5859 255.584 29.4336 255.131 29.4336ZM261.869 35.1172C261.009 35.1172 260.31 34.8359 259.771 34.2734C259.232 33.707 258.962 32.9512 258.962 32.0059V31.8066C258.962 31.1777 259.082 30.6172 259.32 30.125C259.562 29.6289 259.898 29.2422 260.328 28.9648C260.761 28.6836 261.23 28.543 261.734 28.543C262.558 28.543 263.199 28.8145 263.656 29.3574C264.113 29.9004 264.341 30.6777 264.341 31.6895V32.1406H260.046C260.062 32.7656 260.244 33.2715 260.591 33.6582C260.943 34.041 261.388 34.2324 261.927 34.2324C262.31 34.2324 262.634 34.1543 262.9 33.998C263.166 33.8418 263.398 33.6348 263.597 33.377L264.259 33.8926C263.728 34.709 262.931 35.1172 261.869 35.1172ZM261.734 29.4336C261.296 29.4336 260.929 29.5938 260.632 29.9141C260.335 30.2305 260.152 30.6758 260.082 31.25H263.257V31.168C263.226 30.6172 263.078 30.1914 262.812 29.8906C262.546 29.5859 262.187 29.4336 261.734 29.4336ZM266.866 28.6602L266.902 29.457C267.386 28.8477 268.019 28.543 268.8 28.543C270.14 28.543 270.816 29.2988 270.827 30.8105V35H269.743V30.8047C269.74 30.3477 269.634 30.0098 269.427 29.791C269.224 29.5723 268.906 29.4629 268.472 29.4629C268.12 29.4629 267.812 29.5566 267.546 29.7441C267.281 29.9316 267.074 30.1777 266.925 30.4824V35H265.841V28.6602H266.866Z" fill="#636363"/>
<circle cx="280.5" cy="31.5" r="4" stroke="#636363"/>
<rect x="280" y="31" width="1" height="3" fill="#636363"/>
<rect x="280" y="29" width="1" height="1" fill="#636363"/>
<path d="M271 1L254 5L255 9.5L261 8L264.5 20.5L270 19L266.5 6.5L272 5L271 1Z" fill="#201F24" stroke="#201F24"/>
<rect x="206" y="9" width="1" height="22" fill="#DFDFDF"/>
<path d="M138.476 14H136.5V6.38477L134.142 7.11621V5.50977L138.264 4.0332H138.476V14ZM144.817 4.04688L147.374 11.2656L149.917 4.04688H152.61V14H150.553V11.2793L150.758 6.58301L148.071 14H146.663L143.983 6.58984L144.189 11.2793V14H142.138V4.04688H144.817ZM158.467 8.42871H160.935V10.2129H158.467V13.002H156.587V10.2129H154.112V8.42871H156.587V5.75586H158.467V8.42871Z" fill="#201F24"/>
<path d="M117.99 35V26.4688H120.398C121.141 26.4688 121.797 26.6328 122.367 26.9609C122.938 27.2891 123.377 27.7559 123.686 28.3613C123.998 28.9668 124.156 29.6621 124.16 30.4473V30.9922C124.16 31.7969 124.004 32.502 123.691 33.1074C123.383 33.7129 122.939 34.1777 122.361 34.502C121.787 34.8262 121.117 34.9922 120.352 35H117.99ZM119.115 27.3945V34.0801H120.299C121.166 34.0801 121.84 33.8105 122.32 33.2715C122.805 32.7324 123.047 31.9648 123.047 30.9688V30.4707C123.047 29.502 122.818 28.75 122.361 28.2148C121.908 27.6758 121.264 27.4023 120.428 27.3945H119.115ZM125.648 31.7715C125.648 31.1504 125.769 30.5918 126.011 30.0957C126.258 29.5996 126.597 29.2168 127.031 28.9473C127.469 28.6777 127.967 28.543 128.525 28.543C129.388 28.543 130.086 28.8418 130.617 29.4395C131.152 30.0371 131.42 30.832 131.42 31.8242V31.9004C131.42 32.5176 131.301 33.0723 131.062 33.5645C130.828 34.0527 130.49 34.4336 130.049 34.707C129.611 34.9805 129.107 35.1172 128.537 35.1172C127.677 35.1172 126.98 34.8184 126.445 34.2207C125.914 33.623 125.648 32.832 125.648 31.8477V31.7715ZM126.738 31.9004C126.738 32.6035 126.9 33.168 127.224 33.5938C127.552 34.0195 127.99 34.2324 128.537 34.2324C129.088 34.2324 129.525 34.0176 129.849 33.5879C130.174 33.1543 130.336 32.5488 130.336 31.7715C130.336 31.0762 130.17 30.5137 129.838 30.084C129.51 29.6504 129.072 29.4336 128.525 29.4336C127.99 29.4336 127.558 29.6465 127.23 30.0723C126.902 30.498 126.738 31.1074 126.738 31.9004ZM138.632 33.5059L139.851 28.6602H140.935L139.089 35H138.21L136.669 30.1953L135.169 35H134.291L132.451 28.6602H133.529L134.777 33.4062L136.253 28.6602H137.126L138.632 33.5059ZM143.308 28.6602L143.343 29.457C143.827 28.8477 144.46 28.543 145.241 28.543C146.581 28.543 147.257 29.2988 147.269 30.8105V35H146.185V30.8047C146.181 30.3477 146.075 30.0098 145.868 29.791C145.665 29.5723 145.347 29.4629 144.913 29.4629C144.562 29.4629 144.253 29.5566 143.988 29.7441C143.722 29.9316 143.515 30.1777 143.366 30.4824V35H142.282V28.6602H143.308ZM150.321 35H149.237V26H150.321V35ZM152.014 31.7715C152.014 31.1504 152.136 30.5918 152.378 30.0957C152.624 29.5996 152.964 29.2168 153.397 28.9473C153.835 28.6777 154.333 28.543 154.891 28.543C155.755 28.543 156.452 28.8418 156.983 29.4395C157.518 30.0371 157.786 30.832 157.786 31.8242V31.9004C157.786 32.5176 157.667 33.0723 157.429 33.5645C157.194 34.0527 156.856 34.4336 156.415 34.707C155.977 34.9805 155.473 35.1172 154.903 35.1172C154.044 35.1172 153.346 34.8184 152.811 34.2207C152.28 33.623 152.014 32.832 152.014 31.8477V31.7715ZM153.104 31.9004C153.104 32.6035 153.266 33.168 153.591 33.5938C153.919 34.0195 154.356 34.2324 154.903 34.2324C155.454 34.2324 155.891 34.0176 156.216 33.5879C156.54 33.1543 156.702 32.5488 156.702 31.7715C156.702 31.0762 156.536 30.5137 156.204 30.084C155.876 29.6504 155.438 29.4336 154.891 29.4336C154.356 29.4336 153.925 29.6465 153.596 30.0723C153.268 30.498 153.104 31.1074 153.104 31.9004ZM163.299 35C163.237 34.875 163.186 34.6523 163.147 34.332C162.643 34.8555 162.042 35.1172 161.342 35.1172C160.717 35.1172 160.204 34.9414 159.801 34.5898C159.403 34.2344 159.204 33.7852 159.204 33.2422C159.204 32.582 159.454 32.0703 159.954 31.707C160.458 31.3398 161.165 31.1562 162.075 31.1562H163.129V30.6582C163.129 30.2793 163.016 29.9785 162.79 29.7559C162.563 29.5293 162.229 29.416 161.788 29.416C161.401 29.416 161.077 29.5137 160.815 29.709C160.553 29.9043 160.422 30.1406 160.422 30.418H159.333C159.333 30.1016 159.444 29.7969 159.667 29.5039C159.893 29.207 160.198 28.9727 160.581 28.8008C160.967 28.6289 161.391 28.543 161.852 28.543C162.583 28.543 163.155 28.7266 163.569 29.0938C163.983 29.457 164.198 29.959 164.213 30.5996V33.5176C164.213 34.0996 164.288 34.5625 164.436 34.9062V35H163.299ZM161.501 34.1738C161.84 34.1738 162.163 34.0859 162.467 33.9102C162.772 33.7344 162.993 33.5059 163.129 33.2246V31.9238H162.28C160.952 31.9238 160.288 32.3125 160.288 33.0898C160.288 33.4297 160.401 33.6953 160.627 33.8867C160.854 34.0781 161.145 34.1738 161.501 34.1738ZM165.889 31.7773C165.889 30.8047 166.119 30.0234 166.58 29.4336C167.041 28.8398 167.645 28.543 168.391 28.543C169.133 28.543 169.721 28.7969 170.155 29.3047V26H171.239V35H170.243L170.19 34.3203C169.756 34.8516 169.153 35.1172 168.379 35.1172C167.645 35.1172 167.045 34.8164 166.58 34.2148C166.119 33.6133 165.889 32.8281 165.889 31.8594V31.7773ZM166.973 31.9004C166.973 32.6191 167.121 33.1816 167.418 33.5879C167.715 33.9941 168.125 34.1973 168.649 34.1973C169.336 34.1973 169.838 33.8887 170.155 33.2715V30.3594C169.83 29.7617 169.332 29.4629 168.66 29.4629C168.129 29.4629 167.715 29.668 167.418 30.0781C167.121 30.4883 166.973 31.0957 166.973 31.9004ZM176.857 33.3184C176.857 33.0254 176.746 32.7988 176.524 32.6387C176.305 32.4746 175.92 32.334 175.369 32.2168C174.822 32.0996 174.387 31.959 174.063 31.7949C173.742 31.6309 173.504 31.4355 173.348 31.209C173.195 30.9824 173.119 30.7129 173.119 30.4004C173.119 29.8809 173.338 29.4414 173.775 29.082C174.217 28.7227 174.779 28.543 175.463 28.543C176.182 28.543 176.764 28.7285 177.209 29.0996C177.658 29.4707 177.883 29.9453 177.883 30.5234H176.793C176.793 30.2266 176.666 29.9707 176.412 29.7559C176.162 29.541 175.846 29.4336 175.463 29.4336C175.068 29.4336 174.76 29.5195 174.537 29.6914C174.315 29.8633 174.203 30.0879 174.203 30.3652C174.203 30.627 174.307 30.8242 174.514 30.957C174.721 31.0898 175.094 31.2168 175.633 31.3379C176.176 31.459 176.615 31.6035 176.951 31.7715C177.287 31.9395 177.535 32.1426 177.695 32.3809C177.859 32.6152 177.941 32.9023 177.941 33.2422C177.941 33.8086 177.715 34.2637 177.262 34.6074C176.809 34.9473 176.221 35.1172 175.498 35.1172C174.99 35.1172 174.541 35.0273 174.15 34.8477C173.76 34.668 173.453 34.418 173.231 34.0977C173.012 33.7734 172.902 33.4238 172.902 33.0488H173.986C174.006 33.4121 174.15 33.7012 174.42 33.916C174.693 34.127 175.053 34.2324 175.498 34.2324C175.908 34.2324 176.236 34.1504 176.482 33.9863C176.732 33.8184 176.857 33.5957 176.857 33.3184Z" fill="#636363"/>
<rect x="89" y="9" width="1" height="22" fill="#DFDFDF"/>
<path d="M19.5215 10.2539H20.6494V11.8467H19.5215V14H17.5459V11.8467H13.4648L13.376 10.6025L17.5254 4.04688H19.5215V10.2539ZM15.3447 10.2539H17.5459V6.74023L17.416 6.96582L15.3447 10.2539ZM22.1104 13.0293C22.1104 12.7148 22.2152 12.4596 22.4248 12.2637C22.639 12.0677 22.9056 11.9697 23.2246 11.9697C23.5482 11.9697 23.8148 12.0677 24.0245 12.2637C24.2386 12.4596 24.3457 12.7148 24.3457 13.0293C24.3457 13.3392 24.2409 13.5921 24.0313 13.7881C23.8217 13.9795 23.5528 14.0752 23.2246 14.0752C22.9011 14.0752 22.6345 13.9795 22.4248 13.7881C22.2152 13.5921 22.1104 13.3392 22.1104 13.0293ZM32.9093 9.88477C32.9093 11.2611 32.6244 12.3138 32.0548 13.043C31.4851 13.7721 30.6511 14.1367 29.5528 14.1367C28.4682 14.1367 27.6388 13.779 27.0645 13.0635C26.4903 12.348 26.1964 11.3226 26.1827 9.9873V8.15527C26.1827 6.7653 26.4698 5.71029 27.044 4.99023C27.6228 4.27018 28.4545 3.91016 29.5391 3.91016C30.6238 3.91016 31.4532 4.2679 32.0274 4.9834C32.6016 5.69434 32.8956 6.71745 32.9093 8.05273V9.88477ZM30.9337 7.875C30.9337 7.05013 30.8197 6.45085 30.5919 6.07715C30.3686 5.69889 30.0177 5.50977 29.5391 5.50977C29.0743 5.50977 28.7302 5.68978 28.5069 6.0498C28.2882 6.40527 28.172 6.96354 28.1583 7.72461V10.1445C28.1583 10.9557 28.2677 11.5596 28.4864 11.9561C28.7097 12.348 29.0652 12.5439 29.5528 12.5439C30.0359 12.5439 30.3845 12.3548 30.5987 11.9766C30.8129 11.5983 30.9246 11.0195 30.9337 10.2402V7.875Z" fill="#201F24"/>
<path d="M43 4L44.3471 8.1459H48.7063L45.1796 10.7082L46.5267 14.8541L43 12.2918L39.4733 14.8541L40.8204 10.7082L37.2937 8.1459H41.6529L43 4Z" fill="#201F24"/>
<path d="M4.86328 31.25C4.63672 31.5195 4.36523 31.7363 4.04883 31.9004C3.73633 32.0645 3.39258 32.1465 3.01758 32.1465C2.52539 32.1465 2.0957 32.0254 1.72852 31.7832C1.36523 31.541 1.08398 31.2012 0.884766 30.7637C0.685547 30.3223 0.585938 29.8359 0.585938 29.3047C0.585938 28.7344 0.693359 28.2207 0.908203 27.7637C1.12695 27.3066 1.43555 26.957 1.83398 26.7148C2.23242 26.4727 2.69727 26.3516 3.22852 26.3516C4.07227 26.3516 4.73633 26.668 5.2207 27.3008C5.70898 27.9297 5.95312 28.7891 5.95312 29.8789V30.1953C5.95312 31.8555 5.625 33.0684 4.96875 33.834C4.3125 34.5957 3.32227 34.9863 1.99805 35.0059H1.78711V34.0918H2.01562C2.91016 34.0762 3.59766 33.8438 4.07812 33.3945C4.55859 32.9414 4.82031 32.2266 4.86328 31.25ZM3.19336 31.25C3.55664 31.25 3.89062 31.1387 4.19531 30.916C4.50391 30.6934 4.72852 30.418 4.86914 30.0898V29.6562C4.86914 28.9453 4.71484 28.3672 4.40625 27.9219C4.09766 27.4766 3.70703 27.2539 3.23438 27.2539C2.75781 27.2539 2.375 27.4375 2.08594 27.8047C1.79688 28.168 1.65234 28.6484 1.65234 29.2461C1.65234 29.8281 1.79102 30.3086 2.06836 30.6875C2.34961 31.0625 2.72461 31.25 3.19336 31.25ZM10.1365 31.0332L9.09352 32.1172V35H7.96852V26.4688H9.09352V30.6875L12.8845 26.4688H14.2439L10.8865 30.2363L14.5076 35H13.1599L10.1365 31.0332ZM21.843 29.6328C21.679 29.6055 21.5012 29.5918 21.3098 29.5918C20.5989 29.5918 20.1165 29.8945 19.8626 30.5V35H18.7786V28.6602H19.8333L19.8509 29.3926C20.2063 28.8262 20.7102 28.543 21.3626 28.543C21.5735 28.543 21.7337 28.5703 21.843 28.625V29.6328ZM25.5987 35.1172C24.7393 35.1172 24.0401 34.8359 23.501 34.2734C22.962 33.707 22.6924 32.9512 22.6924 32.0059V31.8066C22.6924 31.1777 22.8116 30.6172 23.0498 30.125C23.292 29.6289 23.628 29.2422 24.0577 28.9648C24.4912 28.6836 24.96 28.543 25.4639 28.543C26.2881 28.543 26.9287 28.8145 27.3858 29.3574C27.8428 29.9004 28.0713 30.6777 28.0713 31.6895V32.1406H23.7764C23.792 32.7656 23.9737 33.2715 24.3213 33.6582C24.6729 34.041 25.1182 34.2324 25.6573 34.2324C26.0401 34.2324 26.3643 34.1543 26.6299 33.998C26.8955 33.8418 27.128 33.6348 27.3272 33.377L27.9893 33.8926C27.458 34.709 26.6612 35.1172 25.5987 35.1172ZM25.4639 29.4336C25.0264 29.4336 24.6592 29.5938 24.3623 29.9141C24.0655 30.2305 23.8819 30.6758 23.8116 31.25H26.9873V31.168C26.9561 30.6172 26.8077 30.1914 26.542 29.8906C26.2764 29.5859 25.917 29.4336 25.4639 29.4336ZM31.5809 33.5293L33.1512 28.6602H34.2586L31.9852 35H31.159L28.8621 28.6602H29.9695L31.5809 33.5293ZM36.7193 35H35.6353V28.6602H36.7193V35ZM35.5474 26.9785C35.5474 26.8027 35.6002 26.6543 35.7056 26.5332C35.815 26.4121 35.9752 26.3516 36.1861 26.3516C36.397 26.3516 36.5572 26.4121 36.6666 26.5332C36.7759 26.6543 36.8306 26.8027 36.8306 26.9785C36.8306 27.1543 36.7759 27.3008 36.6666 27.418C36.5572 27.5352 36.397 27.5938 36.1861 27.5938C35.9752 27.5938 35.815 27.5352 35.7056 27.418C35.6002 27.3008 35.5474 27.1543 35.5474 26.9785ZM41.3304 35.1172C40.471 35.1172 39.7718 34.8359 39.2327 34.2734C38.6937 33.707 38.4241 32.9512 38.4241 32.0059V31.8066C38.4241 31.1777 38.5433 30.6172 38.7816 30.125C39.0238 29.6289 39.3597 29.2422 39.7894 28.9648C40.223 28.6836 40.6917 28.543 41.1956 28.543C42.0198 28.543 42.6605 28.8145 43.1175 29.3574C43.5745 29.9004 43.803 30.6777 43.803 31.6895V32.1406H39.5081C39.5238 32.7656 39.7054 33.2715 40.053 33.6582C40.4046 34.041 40.8499 34.2324 41.389 34.2324C41.7718 34.2324 42.096 34.1543 42.3616 33.998C42.6273 33.8418 42.8597 33.6348 43.0589 33.377L43.721 33.8926C43.1898 34.709 42.3929 35.1172 41.3304 35.1172ZM41.1956 29.4336C40.7581 29.4336 40.3909 29.5938 40.0941 29.9141C39.7972 30.2305 39.6136 30.6758 39.5433 31.25H42.7191V31.168C42.6878 30.6172 42.5394 30.1914 42.2738 29.8906C42.0081 29.5859 41.6488 29.4336 41.1956 29.4336ZM50.9161 33.5059L52.1348 28.6602H53.2188L51.3731 35H50.4942L48.9532 30.1953L47.4532 35H46.5743L44.7345 28.6602H45.8126L47.0606 33.4062L48.5372 28.6602H49.4102L50.9161 33.5059ZM58.2577 33.3184C58.2577 33.0254 58.1463 32.7988 57.9237 32.6387C57.7049 32.4746 57.3202 32.334 56.7694 32.2168C56.2225 32.0996 55.787 31.959 55.4627 31.7949C55.1424 31.6309 54.9041 31.4355 54.7479 31.209C54.5955 30.9824 54.5194 30.7129 54.5194 30.4004C54.5194 29.8809 54.7381 29.4414 55.1756 29.082C55.617 28.7227 56.1795 28.543 56.8631 28.543C57.5819 28.543 58.1639 28.7285 58.6092 29.0996C59.0584 29.4707 59.283 29.9453 59.283 30.5234H58.1932C58.1932 30.2266 58.0662 29.9707 57.8123 29.7559C57.5623 29.541 57.2459 29.4336 56.8631 29.4336C56.4686 29.4336 56.16 29.5195 55.9373 29.6914C55.7147 29.8633 55.6034 30.0879 55.6034 30.3652C55.6034 30.627 55.7069 30.8242 55.9139 30.957C56.1209 31.0898 56.494 31.2168 57.033 31.3379C57.576 31.459 58.0155 31.6035 58.3514 31.7715C58.6873 31.9395 58.9354 32.1426 59.0955 32.3809C59.2596 32.6152 59.3416 32.9023 59.3416 33.2422C59.3416 33.8086 59.1151 34.2637 58.662 34.6074C58.2088 34.9473 57.6209 35.1172 56.8983 35.1172C56.3905 35.1172 55.9412 35.0273 55.5506 34.8477C55.16 34.668 54.8534 34.418 54.6307 34.0977C54.412 33.7734 54.3026 33.4238 54.3026 33.0488H55.3866C55.4061 33.4121 55.5506 33.7012 55.8202 33.916C56.0936 34.127 56.453 34.2324 56.8983 34.2324C57.3084 34.2324 57.6366 34.1504 57.8827 33.9863C58.1327 33.8184 58.2577 33.5957 58.2577 33.3184Z" fill="#636363"/>
</svg>
