<svg width="293" height="38" viewBox="0 0 293 38" fill="none" xmlns="http://www.w3.org/2000/svg">
<path d="M259.885 27.3945H257.143V35H256.023V27.3945H253.287V26.4688H259.885V27.3945ZM263.265 35.1172C262.406 35.1172 261.707 34.8359 261.168 34.2734C260.629 33.707 260.359 32.9512 260.359 32.0059V31.8066C260.359 31.1777 260.478 30.6172 260.717 30.125C260.959 29.6289 261.295 29.2422 261.724 28.9648C262.158 28.6836 262.627 28.543 263.131 28.543C263.955 28.543 264.595 28.8145 265.052 29.3574C265.51 29.9004 265.738 30.6777 265.738 31.6895V32.1406H261.443C261.459 32.7656 261.64 33.2715 261.988 33.6582C262.34 34.041 262.785 34.2324 263.324 34.2324C263.707 34.2324 264.031 34.1543 264.297 33.998C264.562 33.8418 264.795 33.6348 264.994 33.377L265.656 33.8926C265.125 34.709 264.328 35.1172 263.265 35.1172ZM263.131 29.4336C262.693 29.4336 262.326 29.5938 262.029 29.9141C261.732 30.2305 261.549 30.6758 261.478 31.25H264.654V31.168C264.623 30.6172 264.474 30.1914 264.209 29.8906C263.943 29.5859 263.584 29.4336 263.131 29.4336ZM269.869 35.1172C269.009 35.1172 268.31 34.8359 267.771 34.2734C267.232 33.707 266.962 32.9512 266.962 32.0059V31.8066C266.962 31.1777 267.082 30.6172 267.32 30.125C267.562 29.6289 267.898 29.2422 268.328 28.9648C268.761 28.6836 269.23 28.543 269.734 28.543C270.558 28.543 271.199 28.8145 271.656 29.3574C272.113 29.9004 272.341 30.6777 272.341 31.6895V32.1406H268.046C268.062 32.7656 268.244 33.2715 268.591 33.6582C268.943 34.041 269.388 34.2324 269.927 34.2324C270.31 34.2324 270.634 34.1543 270.9 33.998C271.166 33.8418 271.398 33.6348 271.597 33.377L272.259 33.8926C271.728 34.709 270.931 35.1172 269.869 35.1172ZM269.734 29.4336C269.296 29.4336 268.929 29.5938 268.632 29.9141C268.335 30.2305 268.152 30.6758 268.082 31.25H271.257V31.168C271.226 30.6172 271.078 30.1914 270.812 29.8906C270.546 29.5859 270.187 29.4336 269.734 29.4336ZM274.866 28.6602L274.902 29.457C275.386 28.8477 276.019 28.543 276.8 28.543C278.14 28.543 278.816 29.2988 278.827 30.8105V35H277.743V30.8047C277.74 30.3477 277.634 30.0098 277.427 29.791C277.224 29.5723 276.906 29.4629 276.472 29.4629C276.12 29.4629 275.812 29.5566 275.546 29.7441C275.281 29.9316 275.074 30.1777 274.925 30.4824V35H273.841V28.6602H274.866Z" fill="#636363"/>
<circle cx="288.5" cy="31.5" r="4" stroke="#636363"/>
<rect x="288" y="31" width="1" height="3" fill="#636363"/>
<rect x="288" y="29" width="1" height="1" fill="#636363"/>
<path d="M279 1L262 5L263 9.5L269 8L272.5 20.5L278 19L274.5 6.5L280 5L279 1Z" fill="#201F24" stroke="#201F24"/>
<rect x="214" y="9" width="1" height="22" fill="#DFDFDF"/>
<path d="M146.476 14H144.5V6.38477L142.142 7.11621V5.50977L146.264 4.0332H146.476V14ZM152.817 4.04688L155.374 11.2656L157.917 4.04688H160.61V14H158.553V11.2793L158.758 6.58301L156.071 14H154.663L151.983 6.58984L152.189 11.2793V14H150.138V4.04688H152.817ZM166.467 8.42871H168.935V10.2129H166.467V13.002H164.587V10.2129H162.112V8.42871H164.587V5.75586H166.467V8.42871Z" fill="#201F24"/>
<path d="M125.99 35V26.4688H128.398C129.141 26.4688 129.797 26.6328 130.367 26.9609C130.938 27.2891 131.377 27.7559 131.686 28.3613C131.998 28.9668 132.156 29.6621 132.16 30.4473V30.9922C132.16 31.7969 132.004 32.502 131.691 33.1074C131.383 33.7129 130.939 34.1777 130.361 34.502C129.787 34.8262 129.117 34.9922 128.352 35H125.99ZM127.115 27.3945V34.0801H128.299C129.166 34.0801 129.84 33.8105 130.32 33.2715C130.805 32.7324 131.047 31.9648 131.047 30.9688V30.4707C131.047 29.502 130.818 28.75 130.361 28.2148C129.908 27.6758 129.264 27.4023 128.428 27.3945H127.115ZM133.648 31.7715C133.648 31.1504 133.769 30.5918 134.011 30.0957C134.258 29.5996 134.597 29.2168 135.031 28.9473C135.469 28.6777 135.967 28.543 136.525 28.543C137.388 28.543 138.086 28.8418 138.617 29.4395C139.152 30.0371 139.42 30.832 139.42 31.8242V31.9004C139.42 32.5176 139.301 33.0723 139.062 33.5645C138.828 34.0527 138.49 34.4336 138.049 34.707C137.611 34.9805 137.107 35.1172 136.537 35.1172C135.677 35.1172 134.98 34.8184 134.445 34.2207C133.914 33.623 133.648 32.832 133.648 31.8477V31.7715ZM134.738 31.9004C134.738 32.6035 134.9 33.168 135.224 33.5938C135.552 34.0195 135.99 34.2324 136.537 34.2324C137.088 34.2324 137.525 34.0176 137.849 33.5879C138.174 33.1543 138.336 32.5488 138.336 31.7715C138.336 31.0762 138.17 30.5137 137.838 30.084C137.51 29.6504 137.072 29.4336 136.525 29.4336C135.99 29.4336 135.558 29.6465 135.23 30.0723C134.902 30.498 134.738 31.1074 134.738 31.9004ZM146.632 33.5059L147.851 28.6602H148.935L147.089 35H146.21L144.669 30.1953L143.169 35H142.291L140.451 28.6602H141.529L142.777 33.4062L144.253 28.6602H145.126L146.632 33.5059ZM151.308 28.6602L151.343 29.457C151.827 28.8477 152.46 28.543 153.241 28.543C154.581 28.543 155.257 29.2988 155.269 30.8105V35H154.185V30.8047C154.181 30.3477 154.075 30.0098 153.868 29.791C153.665 29.5723 153.347 29.4629 152.913 29.4629C152.562 29.4629 152.253 29.5566 151.988 29.7441C151.722 29.9316 151.515 30.1777 151.366 30.4824V35H150.282V28.6602H151.308ZM158.321 35H157.237V26H158.321V35ZM160.014 31.7715C160.014 31.1504 160.136 30.5918 160.378 30.0957C160.624 29.5996 160.964 29.2168 161.397 28.9473C161.835 28.6777 162.333 28.543 162.891 28.543C163.755 28.543 164.452 28.8418 164.983 29.4395C165.518 30.0371 165.786 30.832 165.786 31.8242V31.9004C165.786 32.5176 165.667 33.0723 165.429 33.5645C165.194 34.0527 164.856 34.4336 164.415 34.707C163.977 34.9805 163.473 35.1172 162.903 35.1172C162.044 35.1172 161.346 34.8184 160.811 34.2207C160.28 33.623 160.014 32.832 160.014 31.8477V31.7715ZM161.104 31.9004C161.104 32.6035 161.266 33.168 161.591 33.5938C161.919 34.0195 162.356 34.2324 162.903 34.2324C163.454 34.2324 163.891 34.0176 164.216 33.5879C164.54 33.1543 164.702 32.5488 164.702 31.7715C164.702 31.0762 164.536 30.5137 164.204 30.084C163.876 29.6504 163.438 29.4336 162.891 29.4336C162.356 29.4336 161.925 29.6465 161.596 30.0723C161.268 30.498 161.104 31.1074 161.104 31.9004ZM171.299 35C171.237 34.875 171.186 34.6523 171.147 34.332C170.643 34.8555 170.042 35.1172 169.342 35.1172C168.717 35.1172 168.204 34.9414 167.801 34.5898C167.403 34.2344 167.204 33.7852 167.204 33.2422C167.204 32.582 167.454 32.0703 167.954 31.707C168.458 31.3398 169.165 31.1562 170.075 31.1562H171.129V30.6582C171.129 30.2793 171.016 29.9785 170.79 29.7559C170.563 29.5293 170.229 29.416 169.788 29.416C169.401 29.416 169.077 29.5137 168.815 29.709C168.553 29.9043 168.422 30.1406 168.422 30.418H167.333C167.333 30.1016 167.444 29.7969 167.667 29.5039C167.893 29.207 168.198 28.9727 168.581 28.8008C168.967 28.6289 169.391 28.543 169.852 28.543C170.583 28.543 171.155 28.7266 171.569 29.0938C171.983 29.457 172.198 29.959 172.213 30.5996V33.5176C172.213 34.0996 172.288 34.5625 172.436 34.9062V35H171.299ZM169.501 34.1738C169.84 34.1738 170.163 34.0859 170.467 33.9102C170.772 33.7344 170.993 33.5059 171.129 33.2246V31.9238H170.28C168.952 31.9238 168.288 32.3125 168.288 33.0898C168.288 33.4297 168.401 33.6953 168.627 33.8867C168.854 34.0781 169.145 34.1738 169.501 34.1738ZM173.889 31.7773C173.889 30.8047 174.119 30.0234 174.58 29.4336C175.041 28.8398 175.645 28.543 176.391 28.543C177.133 28.543 177.721 28.7969 178.155 29.3047V26H179.239V35H178.243L178.19 34.3203C177.756 34.8516 177.153 35.1172 176.379 35.1172C175.645 35.1172 175.045 34.8164 174.58 34.2148C174.119 33.6133 173.889 32.8281 173.889 31.8594V31.7773ZM174.973 31.9004C174.973 32.6191 175.121 33.1816 175.418 33.5879C175.715 33.9941 176.125 34.1973 176.649 34.1973C177.336 34.1973 177.838 33.8887 178.155 33.2715V30.3594C177.83 29.7617 177.332 29.4629 176.66 29.4629C176.129 29.4629 175.715 29.668 175.418 30.0781C175.121 30.4883 174.973 31.0957 174.973 31.9004ZM184.857 33.3184C184.857 33.0254 184.746 32.7988 184.524 32.6387C184.305 32.4746 183.92 32.334 183.369 32.2168C182.822 32.0996 182.387 31.959 182.063 31.7949C181.742 31.6309 181.504 31.4355 181.348 31.209C181.195 30.9824 181.119 30.7129 181.119 30.4004C181.119 29.8809 181.338 29.4414 181.775 29.082C182.217 28.7227 182.779 28.543 183.463 28.543C184.182 28.543 184.764 28.7285 185.209 29.0996C185.658 29.4707 185.883 29.9453 185.883 30.5234H184.793C184.793 30.2266 184.666 29.9707 184.412 29.7559C184.162 29.541 183.846 29.4336 183.463 29.4336C183.068 29.4336 182.76 29.5195 182.537 29.6914C182.315 29.8633 182.203 30.0879 182.203 30.3652C182.203 30.627 182.307 30.8242 182.514 30.957C182.721 31.0898 183.094 31.2168 183.633 31.3379C184.176 31.459 184.615 31.6035 184.951 31.7715C185.287 31.9395 185.535 32.1426 185.695 32.3809C185.859 32.6152 185.941 32.9023 185.941 33.2422C185.941 33.8086 185.715 34.2637 185.262 34.6074C184.809 34.9473 184.221 35.1172 183.498 35.1172C182.99 35.1172 182.541 35.0273 182.15 34.8477C181.76 34.668 181.453 34.418 181.231 34.0977C181.012 33.7734 180.902 33.4238 180.902 33.0488H181.986C182.006 33.4121 182.15 33.7012 182.42 33.916C182.693 34.127 183.053 34.2324 183.498 34.2324C183.908 34.2324 184.236 34.1504 184.482 33.9863C184.732 33.8184 184.857 33.5957 184.857 33.3184Z" fill="#636363"/>
<rect x="97" y="9" width="1" height="22" fill="#DFDFDF"/>
<path d="M27.5215 10.2539H28.6494V11.8467H27.5215V14H25.5459V11.8467H21.4648L21.376 10.6025L25.5254 4.04688H27.5215V10.2539ZM23.3447 10.2539H25.5459V6.74023L25.416 6.96582L23.3447 10.2539ZM30.1104 13.0293C30.1104 12.7148 30.2152 12.4596 30.4248 12.2637C30.639 12.0677 30.9056 11.9697 31.2246 11.9697C31.5482 11.9697 31.8148 12.0677 32.0245 12.2637C32.2386 12.4596 32.3457 12.7148 32.3457 13.0293C32.3457 13.3392 32.2409 13.5921 32.0313 13.7881C31.8217 13.9795 31.5528 14.0752 31.2246 14.0752C30.9011 14.0752 30.6345 13.9795 30.4248 13.7881C30.2152 13.5921 30.1104 13.3392 30.1104 13.0293ZM38.8311 10.0215C38.3162 10.5273 37.7146 10.7803 37.0264 10.7803C36.1469 10.7803 35.4428 10.4795 34.9141 9.87793C34.3855 9.27181 34.1212 8.45605 34.1212 7.43066C34.1212 6.77897 34.2624 6.18197 34.545 5.63965C34.8321 5.09277 35.2309 4.66895 35.7413 4.36816C36.2517 4.06283 36.8259 3.91016 37.4639 3.91016C38.1202 3.91016 38.7035 4.07422 39.2139 4.40234C39.7244 4.73047 40.1208 5.20215 40.4034 5.81738C40.686 6.43262 40.8295 7.13672 40.8341 7.92969V8.66113C40.8341 10.32 40.4216 11.6234 39.5968 12.5713C38.7719 13.5192 37.6029 14.0251 36.0899 14.0889L35.6046 14.0957V12.4482L36.0421 12.4414C37.7602 12.3639 38.6899 11.5573 38.8311 10.0215ZM37.5118 9.26953C37.8308 9.26953 38.1042 9.1875 38.3321 9.02344C38.5645 8.85938 38.74 8.66113 38.8585 8.42871V7.61523C38.8585 6.94531 38.7309 6.42578 38.4757 6.05664C38.2205 5.6875 37.8787 5.50293 37.4503 5.50293C37.0538 5.50293 36.7279 5.68522 36.4727 6.0498C36.2175 6.40983 36.0899 6.86328 36.0899 7.41016C36.0899 7.95247 36.213 8.39909 36.4591 8.75C36.7097 9.09635 37.0606 9.26953 37.5118 9.26953Z" fill="#201F24"/>
<path d="M51 4L52.3471 8.1459H56.7063L53.1796 10.7082L54.5267 14.8541L51 12.2918L47.4733 14.8541L48.8204 10.7082L45.2937 8.1459H49.6529L51 4Z" fill="#201F24"/>
<path d="M4.27148 35H3.18164V27.7754L0.996094 28.5781V27.5938L4.10156 26.4277H4.27148V35ZM11.8416 31.25C11.615 31.5195 11.3435 31.7363 11.0271 31.9004C10.7146 32.0645 10.3709 32.1465 9.99586 32.1465C9.50367 32.1465 9.07398 32.0254 8.7068 31.7832C8.34352 31.541 8.06227 31.2012 7.86305 30.7637C7.66383 30.3223 7.56422 29.8359 7.56422 29.3047C7.56422 28.7344 7.67164 28.2207 7.88648 27.7637C8.10523 27.3066 8.41383 26.957 8.81227 26.7148C9.2107 26.4727 9.67555 26.3516 10.2068 26.3516C11.0505 26.3516 11.7146 26.668 12.199 27.3008C12.6873 27.9297 12.9314 28.7891 12.9314 29.8789V30.1953C12.9314 31.8555 12.6033 33.0684 11.947 33.834C11.2908 34.5957 10.3005 34.9863 8.97633 35.0059H8.76539V34.0918H8.99391C9.88844 34.0762 10.5759 33.8438 11.0564 33.3945C11.5369 32.9414 11.7986 32.2266 11.8416 31.25ZM10.1716 31.25C10.5349 31.25 10.8689 31.1387 11.1736 30.916C11.4822 30.6934 11.7068 30.418 11.8474 30.0898V29.6562C11.8474 28.9453 11.6931 28.3672 11.3845 27.9219C11.0759 27.4766 10.6853 27.2539 10.2127 27.2539C9.73609 27.2539 9.35328 27.4375 9.06422 27.8047C8.77516 28.168 8.63062 28.6484 8.63062 29.2461C8.63062 29.8281 8.7693 30.3086 9.04664 30.6875C9.32789 31.0625 9.70289 31.25 10.1716 31.25ZM19.8394 28.6953C19.8394 29.1211 19.7261 29.5 19.4995 29.832C19.2769 30.1641 18.9741 30.4238 18.5913 30.6113C19.0366 30.8027 19.3882 31.082 19.646 31.4492C19.9077 31.8164 20.0386 32.2324 20.0386 32.6973C20.0386 33.4355 19.7886 34.0234 19.2886 34.4609C18.7925 34.8984 18.1382 35.1172 17.3257 35.1172C16.5054 35.1172 15.8472 34.8984 15.3511 34.4609C14.8589 34.0195 14.6128 33.4316 14.6128 32.6973C14.6128 32.2363 14.7378 31.8203 14.9878 31.4492C15.2417 31.0781 15.5913 30.7969 16.0366 30.6055C15.6577 30.418 15.3589 30.1582 15.1402 29.8262C14.9214 29.4941 14.812 29.1172 14.812 28.6953C14.812 27.9766 15.0425 27.4062 15.5034 26.9844C15.9644 26.5625 16.5718 26.3516 17.3257 26.3516C18.0757 26.3516 18.6812 26.5625 19.1421 26.9844C19.607 27.4062 19.8394 27.9766 19.8394 28.6953ZM18.9546 32.6738C18.9546 32.1973 18.8023 31.8086 18.4976 31.5078C18.1968 31.207 17.8023 31.0566 17.314 31.0566C16.8257 31.0566 16.4331 31.2051 16.1362 31.502C15.8433 31.7988 15.6968 32.1895 15.6968 32.6738C15.6968 33.1582 15.8394 33.5391 16.1245 33.8164C16.4136 34.0938 16.814 34.2324 17.3257 34.2324C17.8335 34.2324 18.232 34.0938 18.521 33.8164C18.8101 33.5352 18.9546 33.1543 18.9546 32.6738ZM17.3257 27.2422C16.8999 27.2422 16.5542 27.375 16.2886 27.6406C16.0269 27.9023 15.896 28.2598 15.896 28.7129C15.896 29.1465 16.0249 29.498 16.2827 29.7676C16.5445 30.0332 16.8921 30.166 17.3257 30.166C17.7593 30.166 18.105 30.0332 18.3628 29.7676C18.6245 29.498 18.7554 29.1465 18.7554 28.7129C18.7554 28.2793 18.6206 27.9258 18.3511 27.6523C18.0816 27.3789 17.7398 27.2422 17.3257 27.2422ZM24.093 31.0332L23.0501 32.1172V35H21.9251V26.4688H23.0501V30.6875L26.8411 26.4688H28.2005L24.843 30.2363L28.4641 35H27.1165L24.093 31.0332ZM35.7996 29.6328C35.6355 29.6055 35.4578 29.5918 35.2664 29.5918C34.5555 29.5918 34.073 29.8945 33.8191 30.5V35H32.7352V28.6602H33.7898L33.8074 29.3926C34.1629 28.8262 34.6668 28.543 35.3191 28.543C35.5301 28.543 35.6902 28.5703 35.7996 28.625V29.6328ZM39.5552 35.1172C38.6959 35.1172 37.9966 34.8359 37.4576 34.2734C36.9185 33.707 36.649 32.9512 36.649 32.0059V31.8066C36.649 31.1777 36.7681 30.6172 37.0064 30.125C37.2486 29.6289 37.5845 29.2422 38.0142 28.9648C38.4478 28.6836 38.9166 28.543 39.4205 28.543C40.2447 28.543 40.8853 28.8145 41.3423 29.3574C41.7994 29.9004 42.0279 30.6777 42.0279 31.6895V32.1406H37.733C37.7486 32.7656 37.9302 33.2715 38.2779 33.6582C38.6295 34.041 39.0748 34.2324 39.6138 34.2324C39.9966 34.2324 40.3209 34.1543 40.5865 33.998C40.8521 33.8418 41.0845 33.6348 41.2837 33.377L41.9459 33.8926C41.4146 34.709 40.6177 35.1172 39.5552 35.1172ZM39.4205 29.4336C38.983 29.4336 38.6158 29.5938 38.3189 29.9141C38.022 30.2305 37.8384 30.6758 37.7681 31.25H40.9439V31.168C40.9127 30.6172 40.7642 30.1914 40.4986 29.8906C40.233 29.5859 39.8736 29.4336 39.4205 29.4336ZM45.5374 33.5293L47.1077 28.6602H48.2152L45.9417 35H45.1155L42.8187 28.6602H43.9261L45.5374 33.5293ZM50.6759 35H49.5919V28.6602H50.6759V35ZM49.504 26.9785C49.504 26.8027 49.5567 26.6543 49.6622 26.5332C49.7716 26.4121 49.9317 26.3516 50.1427 26.3516C50.3536 26.3516 50.5137 26.4121 50.6231 26.5332C50.7325 26.6543 50.7872 26.8027 50.7872 26.9785C50.7872 27.1543 50.7325 27.3008 50.6231 27.418C50.5137 27.5352 50.3536 27.5938 50.1427 27.5938C49.9317 27.5938 49.7716 27.5352 49.6622 27.418C49.5567 27.3008 49.504 27.1543 49.504 26.9785ZM55.287 35.1172C54.4276 35.1172 53.7284 34.8359 53.1893 34.2734C52.6502 33.707 52.3807 32.9512 52.3807 32.0059V31.8066C52.3807 31.1777 52.4998 30.6172 52.7381 30.125C52.9803 29.6289 53.3162 29.2422 53.7459 28.9648C54.1795 28.6836 54.6483 28.543 55.1522 28.543C55.9764 28.543 56.617 28.8145 57.0741 29.3574C57.5311 29.9004 57.7596 30.6777 57.7596 31.6895V32.1406H53.4647C53.4803 32.7656 53.662 33.2715 54.0096 33.6582C54.3612 34.041 54.8065 34.2324 55.3455 34.2324C55.7284 34.2324 56.0526 34.1543 56.3182 33.998C56.5838 33.8418 56.8162 33.6348 57.0155 33.377L57.6776 33.8926C57.1463 34.709 56.3495 35.1172 55.287 35.1172ZM55.1522 29.4336C54.7147 29.4336 54.3475 29.5938 54.0506 29.9141C53.7537 30.2305 53.5702 30.6758 53.4998 31.25H56.6756V31.168C56.6444 30.6172 56.4959 30.1914 56.2303 29.8906C55.9647 29.5859 55.6053 29.4336 55.1522 29.4336ZM64.8727 33.5059L66.0914 28.6602H67.1754L65.3297 35H64.4508L62.9098 30.1953L61.4098 35H60.5309L58.691 28.6602H59.7691L61.0172 33.4062L62.4938 28.6602H63.3668L64.8727 33.5059ZM72.2142 33.3184C72.2142 33.0254 72.1029 32.7988 71.8802 32.6387C71.6615 32.4746 71.2767 32.334 70.7259 32.2168C70.1791 32.0996 69.7435 31.959 69.4193 31.7949C69.099 31.6309 68.8607 31.4355 68.7045 31.209C68.5521 30.9824 68.4759 30.7129 68.4759 30.4004C68.4759 29.8809 68.6947 29.4414 69.1322 29.082C69.5736 28.7227 70.1361 28.543 70.8197 28.543C71.5384 28.543 72.1205 28.7285 72.5658 29.0996C73.015 29.4707 73.2396 29.9453 73.2396 30.5234H72.1498C72.1498 30.2266 72.0228 29.9707 71.7689 29.7559C71.5189 29.541 71.2025 29.4336 70.8197 29.4336C70.4252 29.4336 70.1166 29.5195 69.8939 29.6914C69.6712 29.8633 69.5599 30.0879 69.5599 30.3652C69.5599 30.627 69.6634 30.8242 69.8705 30.957C70.0775 31.0898 70.4505 31.2168 70.9896 31.3379C71.5326 31.459 71.972 31.6035 72.308 31.7715C72.6439 31.9395 72.892 32.1426 73.0521 32.3809C73.2162 32.6152 73.2982 32.9023 73.2982 33.2422C73.2982 33.8086 73.0716 34.2637 72.6185 34.6074C72.1654 34.9473 71.5775 35.1172 70.8548 35.1172C70.347 35.1172 69.8978 35.0273 69.5072 34.8477C69.1166 34.668 68.8099 34.418 68.5873 34.0977C68.3685 33.7734 68.2591 33.4238 68.2591 33.0488H69.3431C69.3627 33.4121 69.5072 33.7012 69.7767 33.916C70.0502 34.127 70.4095 34.2324 70.8548 34.2324C71.265 34.2324 71.5931 34.1504 71.8392 33.9863C72.0892 33.8184 72.2142 33.5957 72.2142 33.3184Z" fill="#636363"/>
</svg>
