<svg width="327" height="89" viewBox="0 0 327 89" fill="none" xmlns="http://www.w3.org/2000/svg">
<rect y="88" width="327" height="0.5" fill="#C6C6C8"/>
<path d="M227.254 72V63.5449H226.199V67.2012H221.558V63.5449H220.504V72H221.558V68.1504H226.199V72H227.254ZM233.664 70.3652C233.401 70.9219 232.85 71.2207 232.036 71.2207C230.963 71.2207 230.266 70.4297 230.213 69.1816V69.1348H234.754V68.748C234.754 66.7852 233.717 65.5723 232.012 65.5723C230.278 65.5723 229.164 66.8613 229.164 68.8477C229.164 70.8457 230.26 72.1113 232.012 72.1113C233.395 72.1113 234.379 71.4434 234.672 70.3652H233.664ZM232 66.4629C233.002 66.4629 233.67 67.2012 233.694 68.3203H230.213C230.289 67.2012 230.993 66.4629 232 66.4629ZM236.595 72H237.603V63.1758H236.595V72ZM239.818 72H240.826V63.1758H239.818V72ZM245.579 72.1113C247.378 72.1113 248.491 70.8691 248.491 68.8418C248.491 66.8086 247.378 65.5723 245.579 65.5723C243.78 65.5723 242.667 66.8086 242.667 68.8418C242.667 70.8691 243.78 72.1113 245.579 72.1113ZM245.579 71.2031C244.384 71.2031 243.71 70.3359 243.71 68.8418C243.71 67.3418 244.384 66.4805 245.579 66.4805C246.774 66.4805 247.448 67.3418 247.448 68.8418C247.448 70.3359 246.774 71.2031 245.579 71.2031ZM262.321 72V63.5449H261.096L258.202 70.5996H258.108L255.213 63.5449H253.989V72H254.973V65.543H255.043L257.709 72H258.6L261.266 65.543H261.336V72H262.321ZM267.144 72.1113C268.943 72.1113 270.056 70.8691 270.056 68.8418C270.056 66.8086 268.943 65.5723 267.144 65.5723C265.345 65.5723 264.232 66.8086 264.232 68.8418C264.232 70.8691 265.345 72.1113 267.144 72.1113ZM267.144 71.2031C265.948 71.2031 265.275 70.3359 265.275 68.8418C265.275 67.3418 265.948 66.4805 267.144 66.4805C268.339 66.4805 269.013 67.3418 269.013 68.8418C269.013 70.3359 268.339 71.2031 267.144 71.2031ZM274.979 72.1113C276.578 72.1113 277.627 70.8164 277.627 68.8418C277.627 66.8555 276.584 65.5723 274.979 65.5723C274.111 65.5723 273.344 66 272.998 66.6797H272.904V63.1758H271.896V72H272.857V70.9922H272.951C273.35 71.6953 274.1 72.1113 274.979 72.1113ZM274.744 66.4805C275.898 66.4805 276.584 67.3652 276.584 68.8418C276.584 70.3184 275.898 71.2031 274.744 71.2031C273.596 71.2031 272.881 70.3008 272.881 68.8418C272.881 67.3828 273.596 66.4805 274.744 66.4805ZM279.936 64.4648C280.323 64.4648 280.639 64.1484 280.639 63.7617C280.639 63.375 280.323 63.0586 279.936 63.0586C279.55 63.0586 279.233 63.375 279.233 63.7617C279.233 64.1484 279.55 64.4648 279.936 64.4648ZM279.432 72H280.44V65.6836H279.432V72ZM282.621 72H283.629V63.1758H282.621V72ZM289.969 70.3652C289.705 70.9219 289.155 71.2207 288.34 71.2207C287.268 71.2207 286.571 70.4297 286.518 69.1816V69.1348H291.059V68.748C291.059 66.7852 290.022 65.5723 288.317 65.5723C286.582 65.5723 285.469 66.8613 285.469 68.8477C285.469 70.8457 286.565 72.1113 288.317 72.1113C289.7 72.1113 290.684 71.4434 290.977 70.3652H289.969ZM288.305 66.4629C289.307 66.4629 289.975 67.2012 289.998 68.3203H286.518C286.594 67.2012 287.297 66.4629 288.305 66.4629ZM297.611 72V63.5449H296.557V72H297.611ZM299.839 72H300.846V68.2617C300.846 67.1543 301.497 66.4805 302.505 66.4805C303.513 66.4805 303.993 67.0195 303.993 68.1562V72H305.001V67.9102C305.001 66.4102 304.21 65.5723 302.792 65.5723C301.825 65.5723 301.21 65.9824 300.893 66.6797H300.8V65.6836H299.839V72ZM312.273 67.6172C312.097 66.4922 311.16 65.5723 309.625 65.5723C307.855 65.5723 306.73 66.8496 306.73 68.8184C306.73 70.8281 307.861 72.1113 309.63 72.1113C311.148 72.1113 312.091 71.2559 312.273 70.0957H311.254C311.066 70.8105 310.474 71.2031 309.625 71.2031C308.5 71.2031 307.773 70.2773 307.773 68.8184C307.773 67.3887 308.488 66.4805 309.625 66.4805C310.533 66.4805 311.089 66.9902 311.254 67.6172H312.273ZM314.793 72.0586C315.215 72.0586 315.555 71.7129 315.555 71.2969C315.555 70.875 315.215 70.5352 314.793 70.5352C314.377 70.5352 314.032 70.875 314.032 71.2969C314.032 71.7129 314.377 72.0586 314.793 72.0586Z" fill="#8E8D92"/>
<mask id="mask0" mask-type="alpha" maskUnits="userSpaceOnUse" x="256" y="30" width="24" height="24">
<rect x="257" y="31" width="22" height="22" rx="5" fill="#C4C4C4" stroke="#8A898E" stroke-width="2"/>
</mask>
<g mask="url(#mask0)">
<rect x="257" y="31" width="22" height="22" rx="5" stroke="#8A898E" stroke-width="2"/>
<circle cx="268" cy="55" r="9" fill="#8A898E"/>
<circle cx="268" cy="40" r="4" fill="#8A898E"/>
</g>
<path d="M237.384 12.2495V20H240.183C242.492 20 243.83 18.5713 243.83 16.106C243.83 13.6675 242.482 12.2495 240.183 12.2495H237.384ZM238.588 13.2861H240.049C241.654 13.2861 242.605 14.3335 242.605 16.1221C242.605 17.9268 241.671 18.9634 240.049 18.9634H238.588V13.2861ZM250.183 18.9634H246.466V16.5518H249.984V15.5527H246.466V13.2861H250.183V12.2495H245.263V20H250.183V18.9634ZM255.219 20L257.975 12.2495H256.696L254.618 18.5605H254.526L252.437 12.2495H251.127L253.898 20H255.219ZM264.048 18.9634H260.331V16.5518H263.849V15.5527H260.331V13.2861H264.048V12.2495H259.128V20H264.048V18.9634ZM270.422 18.9526H266.792V12.2495H265.588V20H270.422V18.9526ZM274.761 12.0615C272.537 12.0615 271.141 13.6245 271.141 16.1221C271.141 18.6143 272.505 20.188 274.761 20.188C277.001 20.188 278.376 18.6089 278.376 16.1221C278.376 13.6299 276.99 12.0615 274.761 12.0615ZM274.761 13.125C276.227 13.125 277.146 14.2852 277.146 16.1221C277.146 17.9429 276.233 19.1245 274.761 19.1245C273.268 19.1245 272.371 17.9429 272.371 16.1221C272.371 14.2852 273.295 13.125 274.761 13.125ZM279.808 12.2495V20H281.012V17.3521H282.806C284.326 17.3521 285.4 16.3101 285.4 14.8169C285.4 13.2915 284.358 12.2495 282.843 12.2495H279.808ZM281.012 13.2646H282.526C283.584 13.2646 284.17 13.8125 284.17 14.8169C284.17 15.7891 283.563 16.3423 282.526 16.3423H281.012V13.2646ZM291.672 18.9634H287.955V16.5518H291.473V15.5527H287.955V13.2861H291.672V12.2495H286.752V20H291.672V18.9634ZM294.415 17.019H296.113L297.692 20H299.083L297.343 16.8311C298.288 16.5142 298.846 15.6655 298.846 14.6182C298.846 13.1733 297.842 12.2495 296.279 12.2495H293.212V20H294.415V17.019ZM294.415 13.2593H296.113C297.042 13.2593 297.611 13.7803 297.611 14.645C297.611 15.5312 297.074 16.0308 296.145 16.0308H294.415V13.2593Z" fill="#B1B1B3"/>
<rect x="210" y="23" width="0.5" height="39" fill="#C4C4C4"/>
<path d="M135.6 72V68.3613L138.6 63.5449H137.399L135.12 67.3008H135.026L132.747 63.5449H131.546L134.546 68.3613V72H135.6ZM143.347 70.3652C143.084 70.9219 142.533 71.2207 141.718 71.2207C140.646 71.2207 139.949 70.4297 139.896 69.1816V69.1348H144.437V68.748C144.437 66.7852 143.4 65.5723 141.695 65.5723C139.961 65.5723 138.847 66.8613 138.847 68.8477C138.847 70.8457 139.943 72.1113 141.695 72.1113C143.078 72.1113 144.062 71.4434 144.355 70.3652H143.347ZM141.683 66.4629C142.685 66.4629 143.353 67.2012 143.377 68.3203H139.896C139.972 67.2012 140.675 66.4629 141.683 66.4629ZM147.977 72.1113C148.821 72.1113 149.512 71.7422 149.922 71.0684H150.016V72H150.977V67.6758C150.977 66.3633 150.116 65.5723 148.575 65.5723C147.227 65.5723 146.231 66.2402 146.096 67.2539H147.116C147.256 66.7559 147.784 66.4688 148.539 66.4688C149.483 66.4688 149.969 66.8965 149.969 67.6758V68.25L148.147 68.3613C146.676 68.4492 145.844 69.0996 145.844 70.2305C145.844 71.3848 146.752 72.1113 147.977 72.1113ZM148.164 71.2266C147.432 71.2266 146.887 70.8516 146.887 70.207C146.887 69.5742 147.309 69.2402 148.27 69.1758L149.969 69.0645V69.6445C149.969 70.5469 149.202 71.2266 148.164 71.2266ZM153.04 72H154.048V68.0859C154.048 67.1953 154.745 66.5508 155.706 66.5508C155.905 66.5508 156.269 66.5859 156.351 66.6094V65.6016C156.222 65.584 156.011 65.5723 155.847 65.5723C155.009 65.5723 154.282 66.0059 154.095 66.6211H154.001V65.6836H153.04V72ZM157.547 67.4121C157.547 68.3262 158.086 68.8359 159.27 69.123L160.354 69.3867C161.027 69.5508 161.355 69.8438 161.355 70.2773C161.355 70.8574 160.746 71.2617 159.896 71.2617C159.088 71.2617 158.584 70.9219 158.414 70.3887H157.377C157.488 71.4375 158.455 72.1113 159.861 72.1113C161.297 72.1113 162.393 71.332 162.393 70.2012C162.393 69.293 161.818 68.7773 160.629 68.4902L159.656 68.2559C158.912 68.0742 158.561 67.8047 158.561 67.3711C158.561 66.8086 159.146 66.4277 159.896 66.4277C160.658 66.4277 161.15 66.7617 161.285 67.2656H162.281C162.146 66.2285 161.227 65.5723 159.902 65.5723C158.561 65.5723 157.547 66.3633 157.547 67.4121ZM171.441 63.3457C169.05 63.3457 167.562 65.0508 167.562 67.7695C167.562 70.4766 169.015 72.1992 171.441 72.1992C173.855 72.1992 175.32 70.4707 175.32 67.7695C175.32 65.0566 173.843 63.3457 171.441 63.3457ZM171.441 64.3184C173.17 64.3184 174.236 65.6543 174.236 67.7695C174.236 69.8672 173.175 71.2266 171.441 71.2266C169.683 71.2266 168.646 69.8672 168.646 67.7695C168.646 65.6543 169.718 64.3184 171.441 64.3184ZM177.278 72H178.286V63.1758H177.278V72ZM182.78 72.1113C183.654 72.1113 184.404 71.6953 184.802 70.9922H184.896V72H185.857V63.1758H184.849V66.6797H184.761C184.404 65.9883 183.659 65.5723 182.78 65.5723C181.175 65.5723 180.126 66.8613 180.126 68.8418C180.126 70.8281 181.163 72.1113 182.78 72.1113ZM183.015 66.4805C184.157 66.4805 184.872 67.3945 184.872 68.8418C184.872 70.3008 184.163 71.2031 183.015 71.2031C181.861 71.2031 181.169 70.3184 181.169 68.8418C181.169 67.3711 181.866 66.4805 183.015 66.4805Z" fill="#8E8D92"/>
<path d="M147.84 51.2148C148.646 51.2148 149.204 50.6562 149.204 49.8184V36.8311C149.204 35.875 148.613 35.2842 147.636 35.2842C147.056 35.2842 146.626 35.3809 145.938 35.8643L142.77 38.0879C142.308 38.4102 142.136 38.7324 142.136 39.1621C142.136 39.7744 142.555 40.1934 143.135 40.1934C143.436 40.1934 143.65 40.1182 143.919 39.9248L146.422 38.1846H146.476V49.8184C146.476 50.6562 147.034 51.2148 147.84 51.2148ZM154.124 51H162.696C163.427 51 163.878 50.5488 163.878 49.8721C163.878 49.1846 163.427 48.7334 162.696 48.7334H156.509V48.6797L160.064 45.1777C162.632 42.6641 163.502 41.4395 163.502 39.624C163.502 37.0244 161.364 35.1875 158.26 35.1875C155.241 35.1875 153.383 36.96 152.964 38.6357C152.91 38.8184 152.878 39.0117 152.878 39.2158C152.878 39.9033 153.329 40.3652 154.081 40.3652C154.715 40.3652 155.037 40.0752 155.316 39.5166C155.864 38.1201 156.842 37.4111 158.238 37.4111C159.731 37.4111 160.795 38.4102 160.795 39.7959C160.795 40.9775 160.301 41.7617 158.324 43.7168L153.587 48.4111C152.996 48.9697 152.813 49.292 152.813 49.8291C152.813 50.5273 153.265 51 154.124 51ZM171.623 50.624C172.364 50.624 172.826 50.1191 172.826 49.3457V46.0156H175.974C176.736 46.0156 177.23 45.5537 177.23 44.8232C177.23 44.0928 176.736 43.6309 175.984 43.6309H172.826V40.29C172.826 39.5166 172.364 39.0117 171.623 39.0117C170.871 39.0117 170.409 39.5166 170.409 40.29V43.6309H167.251C166.488 43.6309 165.994 44.0928 165.994 44.8232C165.994 45.5537 166.488 46.0156 167.251 46.0156H170.409V49.335C170.409 50.1191 170.871 50.624 171.623 50.624Z" fill="#8E8D92"/>
<path d="M154.081 20H155.36L152.561 12.2495H151.267L148.469 20H149.704L150.418 17.9053H153.372L154.081 20ZM151.852 13.6191H151.944L153.066 16.9385H150.724L151.852 13.6191ZM162.76 16.9492V15.9878H159.58V16.96H161.578V17.1318C161.567 18.3188 160.697 19.1191 159.43 19.1191C157.974 19.1191 157.061 17.9751 157.061 16.1167C157.061 14.2852 157.969 13.1304 159.403 13.1304C160.461 13.1304 161.197 13.6514 161.498 14.6128H162.706C162.443 13.0498 161.165 12.0615 159.403 12.0615C157.233 12.0615 155.831 13.6567 155.831 16.1221C155.831 18.6196 157.217 20.188 159.414 20.188C161.444 20.188 162.76 18.915 162.76 16.9492ZM169.139 18.9634H165.423V16.5518H168.941V15.5527H165.423V13.2861H169.139V12.2495H164.219V20H169.139V18.9634Z" fill="#B1B1B3"/>
<rect x="109" y="23" width="0.5" height="39" fill="#C4C4C4"/>
<path d="M39.5277 62.3587C39.6834 61.9109 40.3166 61.9109 40.4723 62.3587L41.5316 65.4061C41.6002 65.6036 41.7846 65.7376 41.9937 65.7418L45.2193 65.8076C45.6932 65.8172 45.8889 66.4195 45.5111 66.7059L42.9402 68.655C42.7736 68.7814 42.7032 68.9981 42.7637 69.1983L43.698 72.2863C43.8352 72.7401 43.3229 73.1123 42.9338 72.8415L40.2856 70.9987C40.1139 70.8793 39.8861 70.8793 39.7144 70.9987L37.0662 72.8415C36.6771 73.1123 36.1648 72.7401 36.302 72.2863L37.2363 69.1983C37.2968 68.9981 37.2264 68.7814 37.0598 68.655L34.4889 66.7059C34.1111 66.4195 34.3068 65.8172 34.7807 65.8076L38.0063 65.7418C38.2154 65.7376 38.3998 65.6036 38.4684 65.4061L39.5277 62.3587Z" fill="#8E8D92"/>
<path d="M53.5277 62.3587C53.6834 61.9109 54.3166 61.9109 54.4723 62.3587L55.5316 65.4061C55.6002 65.6036 55.7846 65.7376 55.9937 65.7418L59.2193 65.8076C59.6932 65.8172 59.8889 66.4195 59.5111 66.7059L56.9402 68.655C56.7736 68.7814 56.7032 68.9981 56.7637 69.1983L57.698 72.2863C57.8352 72.7401 57.3229 73.1123 56.9338 72.8415L54.2856 70.9987C54.1139 70.8793 53.8861 70.8793 53.7144 70.9987L51.0662 72.8415C50.6771 73.1123 50.1648 72.7401 50.302 72.2863L51.2363 69.1983C51.2968 68.9981 51.2264 68.7814 51.0598 68.655L48.4889 66.7059C48.1111 66.4195 48.3068 65.8172 48.7807 65.8076L52.0063 65.7418C52.2154 65.7376 52.3998 65.6036 52.4684 65.4061L53.5277 62.3587Z" fill="#8E8D92"/>
<path d="M67.5277 62.3587C67.6834 61.9109 68.3166 61.9109 68.4723 62.3587L69.5316 65.4061C69.6002 65.6036 69.7846 65.7376 69.9937 65.7418L73.2193 65.8076C73.6932 65.8172 73.8889 66.4195 73.5111 66.7059L70.9402 68.655C70.7736 68.7814 70.7032 68.9981 70.7637 69.1983L71.698 72.2863C71.8352 72.7401 71.3229 73.1123 70.9338 72.8415L68.2856 70.9987C68.1139 70.8793 67.8861 70.8793 67.7144 70.9987L65.0662 72.8415C64.6771 73.1123 64.1648 72.7401 64.302 72.2863L65.2363 69.1983C65.2968 68.9981 65.2264 68.7814 65.0598 68.655L62.4889 66.7059C62.1111 66.4195 62.3068 65.8172 62.7807 65.8076L66.0063 65.7418C66.2154 65.7376 66.3998 65.6036 66.4684 65.4061L67.5277 62.3587Z" fill="#8E8D92"/>
<path d="M81.9055 62.49C81.9157 62.4608 81.9296 62.4473 81.9415 62.4393C81.9557 62.4298 81.9761 62.4229 82 62.4229C82.0239 62.4229 82.0443 62.4298 82.0585 62.4393C82.0704 62.4473 82.0843 62.4608 82.0945 62.49L83.1537 65.5374C83.2773 65.893 83.6092 66.1341 83.9855 66.1418L87.2111 66.2075C87.242 66.2081 87.2592 66.2171 87.2704 66.226C87.2839 66.2366 87.2968 66.2538 87.3042 66.2766C87.3116 66.2993 87.3113 66.3208 87.3066 66.3373C87.3027 66.3511 87.2941 66.3685 87.2695 66.3872L84.6986 68.3363C84.3986 68.5637 84.2718 68.9538 84.3808 69.3141L85.3151 72.4021C85.324 72.4317 85.3208 72.4509 85.3159 72.4643C85.3099 72.4804 85.2975 72.4979 85.2782 72.512C85.2588 72.5261 85.2383 72.5324 85.2211 72.5331C85.2068 72.5337 85.1876 72.5308 85.1623 72.5132L82.5141 70.6704C82.2051 70.4554 81.7949 70.4554 81.4859 70.6704L78.8377 72.5132C78.8124 72.5308 78.7932 72.5337 78.7789 72.5331C78.7617 72.5324 78.7412 72.5261 78.7218 72.512C78.7025 72.4979 78.6901 72.4804 78.6841 72.4643C78.6792 72.4509 78.676 72.4317 78.6849 72.4021L79.6192 69.3141C79.7282 68.9538 79.6014 68.5637 79.3014 68.3363L76.7305 66.3872C76.7059 66.3685 76.6973 66.3511 76.6934 66.3373C76.6887 66.3208 76.6884 66.2993 76.6958 66.2766C76.7032 66.2538 76.7161 66.2366 76.7296 66.226C76.7408 66.2171 76.758 66.2081 76.7889 66.2075L80.0145 66.1418C80.3908 66.1341 80.7227 65.893 80.8463 65.5374L81.9055 62.49Z" fill="#8E8D92" stroke="#8E8D92" stroke-width="0.8"/>
<path d="M25.5277 62.3587C25.6834 61.9109 26.3166 61.9109 26.4723 62.3587L27.5316 65.4061C27.6002 65.6036 27.7846 65.7376 27.9937 65.7418L31.2193 65.8076C31.6932 65.8172 31.8889 66.4195 31.5111 66.7059L28.9402 68.655C28.7736 68.7814 28.7032 68.9981 28.7637 69.1983L29.698 72.2863C29.8352 72.7401 29.3229 73.1123 28.9338 72.8415L26.2856 70.9987C26.1139 70.8793 25.8861 70.8793 25.7144 70.9987L23.0662 72.8415C22.6771 73.1123 22.1648 72.7401 22.302 72.2863L23.2363 69.1983C23.2968 68.9981 23.2264 68.7814 23.0598 68.655L20.4889 66.7059C20.1111 66.4195 20.3068 65.8172 20.7807 65.8076L24.0063 65.7418C24.2154 65.7376 24.3998 65.6036 24.4684 65.4061L25.5277 62.3587Z" fill="#8E8D92"/>
<path d="M46.0176 51.2148C46.791 51.2148 47.3389 50.7207 47.3389 49.8506V48.0244H48.4131C49.1543 48.0244 49.5947 47.5625 49.5947 46.8857C49.5947 46.2197 49.1543 45.7471 48.4238 45.7471H47.3389V37.3252C47.3389 36.0361 46.4902 35.2842 45.0615 35.2842C43.9229 35.2842 43.2461 35.7568 42.2363 37.2607C40.3779 39.9893 38.6162 42.6426 37.5312 44.5869C37.1016 45.3604 36.9297 45.8652 36.9297 46.4668C36.9297 47.3906 37.585 48.0244 38.584 48.0244H44.6963V49.8506C44.6963 50.7207 45.2549 51.2148 46.0176 51.2148ZM44.7393 45.8115H39.4434V45.7363C40.7002 43.4482 42.2363 41.1279 44.6963 37.6045H44.7393V45.8115ZM53.0322 51.1182C53.8916 51.1182 54.5684 50.4414 54.5684 49.5713C54.5684 48.7119 53.8916 48.0244 53.0322 48.0244C52.1621 48.0244 51.4854 48.7119 51.4854 49.5713C51.4854 50.4414 52.1621 51.1182 53.0322 51.1182ZM62.5391 51.3115C66.5352 51.3115 68.9092 48.25 68.9092 43.0723C68.9092 41.2998 68.6084 39.8174 68.0498 38.625C66.9863 36.3691 65.0635 35.1768 62.6465 35.1768C59.2949 35.1768 56.8564 37.4434 56.8564 40.6016C56.8564 43.5986 59.1016 45.6826 62.002 45.6826C64.0107 45.6826 65.6113 44.6729 66.2021 43.1689H66.2451V43.3408C66.2129 46.8535 65.0205 49.0664 62.625 49.0664C61.3359 49.0664 60.5947 48.5938 59.8643 47.6162C59.4346 47.0684 59.0908 46.8105 58.5322 46.8105C57.791 46.8105 57.3613 47.2832 57.3613 47.9277C57.3613 48.207 57.4365 48.4648 57.5869 48.7764C58.2314 50.0762 60.0039 51.3115 62.5391 51.3115ZM62.6465 43.5342C60.8848 43.5342 59.5742 42.2666 59.5742 40.4941C59.5742 38.7969 60.9492 37.4541 62.6787 37.4541C64.4297 37.4541 65.7832 38.8076 65.7832 40.5479C65.7832 42.2773 64.4404 43.5342 62.6465 43.5342Z" fill="#8E8D92"/>
<path d="M17.9077 20.1826C19.5513 20.1826 20.7168 19.0601 20.7168 17.4863C20.7168 15.9932 19.6426 14.9028 18.1709 14.9028C17.2524 14.9028 16.5059 15.3325 16.1353 16.0791H16.0439C16.0654 14.1133 16.7744 13.0767 17.9829 13.0767C18.7134 13.0767 19.2451 13.4526 19.3955 14.1079H20.604C20.4106 12.8779 19.4116 12.0615 17.9561 12.0615C16.0708 12.0615 14.8892 13.5977 14.8892 16.2295C14.8892 18.8667 16.1621 20.1826 17.9077 20.1826ZM17.897 19.1782C16.9731 19.1782 16.2695 18.4478 16.2695 17.4917C16.2695 16.5464 16.9517 15.8643 17.9077 15.8643C18.8638 15.8643 19.5244 16.5464 19.5244 17.5186C19.5244 18.4585 18.8208 19.1782 17.897 19.1782ZM24.9492 20.188C26.5928 20.188 27.7046 19.0869 27.7046 17.4756C27.7046 15.9287 26.6304 14.9189 25.3198 14.9189C24.5356 14.9189 23.9609 15.1714 23.6064 15.6494H23.5151L23.7407 13.27H27.3018V12.2495H22.8062L22.3711 16.7236H23.4722C23.7568 16.1865 24.2993 15.8643 24.9868 15.8643C25.8999 15.8643 26.5283 16.5195 26.5283 17.4971C26.5283 18.5068 25.8945 19.1836 24.9546 19.1836C24.1113 19.1836 23.4829 18.6733 23.397 17.8999H22.2476C22.3228 19.248 23.4077 20.188 24.9492 20.188ZM29.7241 20.0806C30.1807 20.0806 30.5137 19.7422 30.5137 19.3071C30.5137 18.8721 30.1807 18.5337 29.7241 18.5337C29.2729 18.5337 28.9346 18.8721 28.9346 19.3071C28.9346 19.7422 29.2729 20.0806 29.7241 20.0806ZM34.6709 20.188C36.395 20.188 37.5874 19.2588 37.5874 17.9214C37.5874 16.9224 36.9321 16.1382 35.9385 15.9502V15.8589C36.7549 15.6494 37.2705 14.9888 37.2705 14.1455C37.2705 12.9263 36.1909 12.0615 34.6709 12.0615C33.1509 12.0615 32.0713 12.9263 32.0713 14.1455C32.0713 14.9834 32.5977 15.6548 33.4033 15.8589V15.9502C32.4097 16.1489 31.7598 16.9331 31.7598 17.9268C31.7598 19.2642 32.9468 20.188 34.6709 20.188ZM34.6709 15.4883C33.8276 15.4883 33.2583 14.9941 33.2583 14.2583C33.2583 13.5117 33.8223 13.0122 34.6709 13.0122C35.5195 13.0122 36.0889 13.5117 36.0889 14.2583C36.0889 14.9941 35.5142 15.4883 34.6709 15.4883ZM34.6709 19.2319C33.6772 19.2319 32.9897 18.6572 32.9897 17.8301C32.9897 17.0029 33.6772 16.4336 34.6709 16.4336C35.6646 16.4336 36.3521 17.0029 36.3521 17.8301C36.3521 18.6572 35.6646 19.2319 34.6709 19.2319ZM40.4771 20V17.4165L41.3472 16.4282L43.9468 20H45.4507L42.1958 15.6118L45.1929 12.2495H43.7695L40.563 15.9126H40.4771V12.2495H39.2739V20H40.4771ZM50.9292 17.019H52.6265L54.2056 20H55.5967L53.8564 16.8311C54.8018 16.5142 55.3604 15.6655 55.3604 14.6182C55.3604 13.1733 54.356 12.2495 52.793 12.2495H49.7261V20H50.9292V17.019ZM50.9292 13.2593H52.6265C53.5557 13.2593 54.125 13.7803 54.125 14.645C54.125 15.5312 53.5879 16.0308 52.6587 16.0308H50.9292V13.2593ZM62.0903 20H63.3687L60.5703 12.2495H59.2759L56.4775 20H57.7129L58.4272 17.9053H61.3813L62.0903 20ZM59.8613 13.6191H59.9526L61.0752 16.9385H58.7334L59.8613 13.6191ZM66.9995 20V13.2861H69.4326V12.2495H63.3579V13.2861H65.7964V20H66.9995ZM72.1128 20V12.2495H70.9097V20H72.1128ZM75.228 20V14.3711H75.314L79.2939 20H80.3789V12.2495H79.208V17.8892H79.1221L75.1421 12.2495H74.0571V20H75.228ZM88.9404 16.9492V15.9878H85.7607V16.96H87.7588V17.1318C87.748 18.3188 86.8779 19.1191 85.6104 19.1191C84.1548 19.1191 83.2417 17.9751 83.2417 16.1167C83.2417 14.2852 84.1494 13.1304 85.5835 13.1304C86.6416 13.1304 87.3774 13.6514 87.6782 14.6128H88.8867C88.6235 13.0498 87.3452 12.0615 85.5835 12.0615C83.4136 12.0615 82.0117 13.6567 82.0117 16.1221C82.0117 18.6196 83.3975 20.188 85.5942 20.188C87.6245 20.188 88.9404 18.915 88.9404 16.9492ZM90.2349 17.9321C90.3208 19.3071 91.4756 20.188 93.1943 20.188C95.0312 20.188 96.1807 19.2642 96.1807 17.7979C96.1807 16.6377 95.5254 15.9985 93.9355 15.6172L93.0815 15.4077C92.0718 15.1606 91.6636 14.8384 91.6636 14.2744C91.6636 13.5493 92.2974 13.082 93.248 13.082C94.1504 13.082 94.7734 13.5332 94.8862 14.269H96.0571C95.9873 12.9746 94.8379 12.0615 93.2642 12.0615C91.5723 12.0615 90.4443 12.9746 90.4443 14.3389C90.4443 15.4668 91.0835 16.1328 92.4854 16.4712L93.4844 16.7129C94.5103 16.96 94.9614 17.3359 94.9614 17.9429C94.9614 18.6519 94.2524 19.1621 93.2856 19.1621C92.249 19.1621 91.5293 18.6841 91.4272 17.9321H90.2349Z" fill="#B1B1B3"/>
<rect width="327" height="0.5" fill="#C6C6C8"/>
</svg>
